G04 EAGLE Gerber RS-274X export*
G75*
%MOMM*%
%FSLAX34Y34*%
%LPD*%
%INTop Copper*%
%IPPOS*%
%AMOC8*
5,1,8,0,0,1.08239X$1,22.5*%
G01*
%ADD10P,1.429621X8X202.500000*%
%ADD11P,1.429621X8X112.500000*%
%ADD12C,1.320800*%
%ADD13C,1.400000*%
%ADD14P,1.429621X8X292.500000*%
%ADD15P,1.924489X8X112.500000*%
%ADD16P,2.749271X8X112.500000*%
%ADD17C,1.524000*%
%ADD18C,0.406400*%

G36*
X496173Y214D02*
X496173Y214D01*
X496191Y212D01*
X496294Y233D01*
X496397Y250D01*
X496414Y258D01*
X496432Y262D01*
X496522Y315D01*
X496615Y364D01*
X496628Y377D01*
X496644Y387D01*
X496713Y466D01*
X496785Y541D01*
X496793Y558D01*
X496805Y573D01*
X496845Y669D01*
X496890Y764D01*
X496892Y783D01*
X496899Y800D01*
X496919Y967D01*
X499760Y392398D01*
X499756Y392419D01*
X499759Y392441D01*
X499738Y392541D01*
X499722Y392641D01*
X499712Y392660D01*
X499707Y392682D01*
X499655Y392769D01*
X499608Y392859D01*
X499593Y392874D01*
X499582Y392893D01*
X499505Y392959D01*
X499431Y393030D01*
X499412Y393039D01*
X499395Y393053D01*
X499301Y393091D01*
X499209Y393135D01*
X499187Y393138D01*
X499167Y393146D01*
X499000Y393165D01*
X87771Y394114D01*
X87752Y394111D01*
X87733Y394113D01*
X87631Y394092D01*
X87528Y394075D01*
X87511Y394066D01*
X87493Y394062D01*
X87402Y394009D01*
X87310Y393960D01*
X87297Y393947D01*
X87281Y393937D01*
X87212Y393858D01*
X87140Y393782D01*
X87132Y393765D01*
X87120Y393751D01*
X87081Y393654D01*
X87036Y393560D01*
X87034Y393541D01*
X87027Y393523D01*
X87008Y393357D01*
X85114Y2875D01*
X85117Y2855D01*
X85114Y2835D01*
X85136Y2734D01*
X85152Y2632D01*
X85161Y2614D01*
X85166Y2595D01*
X85218Y2506D01*
X85266Y2414D01*
X85281Y2400D01*
X85291Y2383D01*
X85369Y2316D01*
X85444Y2244D01*
X85462Y2235D01*
X85477Y2222D01*
X85573Y2183D01*
X85666Y2139D01*
X85686Y2137D01*
X85705Y2129D01*
X85871Y2110D01*
X496154Y211D01*
X496173Y214D01*
G37*
%LPC*%
G36*
X193881Y16335D02*
X193881Y16335D01*
X190520Y17727D01*
X187947Y20300D01*
X186555Y23661D01*
X186555Y42539D01*
X187947Y45900D01*
X190520Y48473D01*
X193881Y49865D01*
X196919Y49865D01*
X197010Y49879D01*
X197100Y49887D01*
X197130Y49899D01*
X197162Y49904D01*
X197243Y49947D01*
X197327Y49983D01*
X197359Y50009D01*
X197380Y50020D01*
X197402Y50043D01*
X197458Y50088D01*
X203797Y56427D01*
X203808Y56443D01*
X203824Y56455D01*
X203880Y56543D01*
X203940Y56627D01*
X203946Y56646D01*
X203957Y56662D01*
X203982Y56763D01*
X204013Y56862D01*
X204012Y56882D01*
X204017Y56901D01*
X204009Y57004D01*
X204006Y57108D01*
X204000Y57126D01*
X203998Y57146D01*
X203958Y57241D01*
X203922Y57339D01*
X203909Y57354D01*
X203902Y57372D01*
X203797Y57503D01*
X202405Y58895D01*
X201167Y61883D01*
X201167Y65117D01*
X202405Y68105D01*
X204691Y70391D01*
X207679Y71629D01*
X224121Y71629D01*
X227109Y70391D01*
X229395Y68105D01*
X230633Y65117D01*
X230633Y61883D01*
X229395Y58895D01*
X228696Y58196D01*
X228654Y58138D01*
X228605Y58086D01*
X228583Y58039D01*
X228552Y57997D01*
X228531Y57928D01*
X228501Y57863D01*
X228495Y57811D01*
X228480Y57761D01*
X228482Y57690D01*
X228474Y57619D01*
X228485Y57568D01*
X228486Y57516D01*
X228511Y57448D01*
X228526Y57378D01*
X228553Y57333D01*
X228571Y57285D01*
X228616Y57229D01*
X228653Y57167D01*
X228692Y57133D01*
X228725Y57093D01*
X228785Y57054D01*
X228839Y57007D01*
X228888Y56988D01*
X228932Y56960D01*
X229001Y56942D01*
X229068Y56915D01*
X229139Y56907D01*
X229170Y56899D01*
X229193Y56901D01*
X229234Y56897D01*
X278766Y56897D01*
X278836Y56908D01*
X278908Y56910D01*
X278957Y56928D01*
X279008Y56936D01*
X279072Y56970D01*
X279139Y56995D01*
X279180Y57027D01*
X279226Y57052D01*
X279275Y57104D01*
X279331Y57148D01*
X279359Y57192D01*
X279395Y57230D01*
X279425Y57295D01*
X279464Y57355D01*
X279477Y57406D01*
X279499Y57453D01*
X279507Y57524D01*
X279524Y57594D01*
X279520Y57646D01*
X279526Y57697D01*
X279511Y57768D01*
X279505Y57839D01*
X279485Y57887D01*
X279474Y57938D01*
X279437Y57999D01*
X279409Y58065D01*
X279364Y58121D01*
X279347Y58149D01*
X279330Y58164D01*
X279304Y58196D01*
X278605Y58895D01*
X277367Y61883D01*
X277367Y65117D01*
X278605Y68105D01*
X280891Y70391D01*
X283879Y71629D01*
X297883Y71629D01*
X297974Y71643D01*
X298064Y71651D01*
X298094Y71663D01*
X298126Y71668D01*
X298207Y71711D01*
X298291Y71747D01*
X298323Y71773D01*
X298344Y71784D01*
X298366Y71807D01*
X298422Y71852D01*
X326848Y100278D01*
X326901Y100352D01*
X326961Y100422D01*
X326973Y100452D01*
X326992Y100478D01*
X327019Y100565D01*
X327053Y100650D01*
X327057Y100691D01*
X327064Y100713D01*
X327063Y100745D01*
X327071Y100817D01*
X327071Y106967D01*
X331833Y111729D01*
X338567Y111729D01*
X343329Y106967D01*
X343329Y100233D01*
X338567Y95471D01*
X332417Y95471D01*
X332326Y95457D01*
X332236Y95449D01*
X332206Y95437D01*
X332174Y95432D01*
X332093Y95389D01*
X332009Y95353D01*
X331977Y95327D01*
X331956Y95316D01*
X331934Y95293D01*
X331878Y95248D01*
X305703Y69073D01*
X305635Y68979D01*
X305565Y68884D01*
X305563Y68878D01*
X305559Y68873D01*
X305525Y68762D01*
X305489Y68650D01*
X305489Y68644D01*
X305487Y68638D01*
X305490Y68521D01*
X305491Y68404D01*
X305493Y68397D01*
X305493Y68392D01*
X305500Y68375D01*
X305538Y68243D01*
X306833Y65117D01*
X306833Y61883D01*
X305595Y58895D01*
X304896Y58196D01*
X304854Y58138D01*
X304805Y58086D01*
X304783Y58039D01*
X304752Y57997D01*
X304731Y57928D01*
X304701Y57863D01*
X304695Y57811D01*
X304680Y57761D01*
X304682Y57690D01*
X304674Y57619D01*
X304685Y57568D01*
X304686Y57516D01*
X304711Y57448D01*
X304726Y57378D01*
X304753Y57333D01*
X304771Y57285D01*
X304816Y57229D01*
X304853Y57167D01*
X304892Y57133D01*
X304925Y57093D01*
X304985Y57054D01*
X305039Y57007D01*
X305088Y56988D01*
X305132Y56960D01*
X305201Y56942D01*
X305268Y56915D01*
X305339Y56907D01*
X305370Y56899D01*
X305393Y56901D01*
X305434Y56897D01*
X326551Y56897D01*
X326642Y56911D01*
X326732Y56919D01*
X326762Y56931D01*
X326794Y56936D01*
X326875Y56979D01*
X326959Y57015D01*
X326991Y57041D01*
X327012Y57052D01*
X327034Y57075D01*
X327090Y57120D01*
X359182Y89212D01*
X359194Y89229D01*
X359210Y89241D01*
X359266Y89328D01*
X359326Y89412D01*
X359332Y89431D01*
X359343Y89448D01*
X359368Y89548D01*
X359398Y89647D01*
X359398Y89667D01*
X359403Y89687D01*
X359395Y89790D01*
X359392Y89893D01*
X359385Y89912D01*
X359384Y89932D01*
X359343Y90027D01*
X359308Y90124D01*
X359295Y90140D01*
X359287Y90158D01*
X359185Y90285D01*
X359185Y98915D01*
X359194Y98927D01*
X359210Y98940D01*
X359266Y99027D01*
X359326Y99111D01*
X359332Y99130D01*
X359343Y99147D01*
X359368Y99247D01*
X359398Y99346D01*
X359398Y99366D01*
X359403Y99385D01*
X359395Y99488D01*
X359392Y99592D01*
X359385Y99610D01*
X359384Y99630D01*
X359343Y99725D01*
X359308Y99823D01*
X359295Y99838D01*
X359287Y99857D01*
X359182Y99988D01*
X357343Y101827D01*
X357343Y145146D01*
X357329Y145236D01*
X357321Y145327D01*
X357309Y145356D01*
X357304Y145388D01*
X357261Y145469D01*
X357225Y145553D01*
X357199Y145585D01*
X357188Y145606D01*
X357165Y145628D01*
X357120Y145684D01*
X352771Y150033D01*
X352771Y156767D01*
X357533Y161529D01*
X364267Y161529D01*
X369029Y156767D01*
X369029Y150033D01*
X364680Y145684D01*
X364627Y145610D01*
X364567Y145541D01*
X364555Y145510D01*
X364536Y145484D01*
X364509Y145397D01*
X364475Y145312D01*
X364471Y145271D01*
X364464Y145249D01*
X364465Y145217D01*
X364457Y145146D01*
X364457Y105776D01*
X364460Y105756D01*
X364458Y105737D01*
X364480Y105635D01*
X364496Y105533D01*
X364506Y105516D01*
X364510Y105496D01*
X364563Y105407D01*
X364612Y105316D01*
X364626Y105302D01*
X364636Y105285D01*
X364715Y105218D01*
X364790Y105146D01*
X364808Y105138D01*
X364823Y105125D01*
X364919Y105086D01*
X365013Y105043D01*
X365033Y105041D01*
X365051Y105033D01*
X365218Y105015D01*
X373914Y105015D01*
X380015Y98914D01*
X380015Y90285D01*
X380006Y90273D01*
X379990Y90260D01*
X379934Y90173D01*
X379874Y90089D01*
X379868Y90070D01*
X379857Y90053D01*
X379832Y89953D01*
X379802Y89854D01*
X379802Y89834D01*
X379797Y89815D01*
X379805Y89712D01*
X379808Y89608D01*
X379815Y89590D01*
X379816Y89570D01*
X379857Y89475D01*
X379892Y89377D01*
X379905Y89362D01*
X379913Y89343D01*
X380018Y89212D01*
X396250Y72980D01*
X396324Y72927D01*
X396394Y72867D01*
X396424Y72855D01*
X396450Y72836D01*
X396537Y72809D01*
X396622Y72775D01*
X396663Y72771D01*
X396685Y72764D01*
X396717Y72765D01*
X396789Y72757D01*
X460024Y72757D01*
X460044Y72760D01*
X460063Y72758D01*
X460165Y72780D01*
X460267Y72796D01*
X460284Y72806D01*
X460304Y72810D01*
X460393Y72863D01*
X460484Y72912D01*
X460498Y72926D01*
X460515Y72936D01*
X460582Y73015D01*
X460654Y73090D01*
X460662Y73108D01*
X460675Y73123D01*
X460714Y73219D01*
X460757Y73313D01*
X460759Y73333D01*
X460767Y73351D01*
X460785Y73513D01*
X466886Y79615D01*
X475515Y79615D01*
X475527Y79606D01*
X475540Y79590D01*
X475627Y79534D01*
X475711Y79474D01*
X475730Y79468D01*
X475747Y79457D01*
X475847Y79432D01*
X475946Y79402D01*
X475966Y79402D01*
X475985Y79397D01*
X476088Y79405D01*
X476192Y79408D01*
X476210Y79415D01*
X476230Y79416D01*
X476325Y79457D01*
X476423Y79492D01*
X476438Y79505D01*
X476457Y79513D01*
X476588Y79618D01*
X479866Y82896D01*
X479919Y82970D01*
X479979Y83040D01*
X479991Y83070D01*
X480010Y83096D01*
X480037Y83183D01*
X480071Y83268D01*
X480075Y83309D01*
X480082Y83331D01*
X480081Y83363D01*
X480089Y83435D01*
X480089Y112323D01*
X480078Y112394D01*
X480076Y112465D01*
X480058Y112514D01*
X480050Y112566D01*
X480016Y112629D01*
X479991Y112696D01*
X479959Y112737D01*
X479934Y112783D01*
X479882Y112832D01*
X479838Y112888D01*
X479794Y112916D01*
X479756Y112952D01*
X479691Y112983D01*
X479631Y113021D01*
X479580Y113034D01*
X479533Y113056D01*
X479462Y113064D01*
X479392Y113081D01*
X479340Y113077D01*
X479289Y113083D01*
X479218Y113068D01*
X479147Y113062D01*
X479099Y113042D01*
X479048Y113031D01*
X478987Y112994D01*
X478921Y112966D01*
X478865Y112921D01*
X478837Y112905D01*
X478822Y112887D01*
X478790Y112861D01*
X475514Y109585D01*
X466886Y109585D01*
X460785Y115686D01*
X460785Y124315D01*
X460794Y124327D01*
X460810Y124340D01*
X460866Y124427D01*
X460926Y124511D01*
X460932Y124530D01*
X460943Y124547D01*
X460968Y124647D01*
X460998Y124746D01*
X460998Y124766D01*
X461003Y124785D01*
X460995Y124888D01*
X460992Y124992D01*
X460985Y125010D01*
X460984Y125030D01*
X460943Y125125D01*
X460908Y125223D01*
X460895Y125238D01*
X460887Y125257D01*
X460782Y125388D01*
X430550Y155620D01*
X428243Y157927D01*
X428243Y188596D01*
X428229Y188686D01*
X428221Y188777D01*
X428209Y188806D01*
X428204Y188838D01*
X428161Y188919D01*
X428125Y189003D01*
X428099Y189035D01*
X428088Y189056D01*
X428065Y189078D01*
X428020Y189134D01*
X423671Y193483D01*
X423671Y200217D01*
X428020Y204566D01*
X428073Y204640D01*
X428133Y204709D01*
X428145Y204740D01*
X428164Y204766D01*
X428191Y204853D01*
X428225Y204938D01*
X428229Y204979D01*
X428236Y205001D01*
X428235Y205033D01*
X428243Y205104D01*
X428243Y211710D01*
X428232Y211780D01*
X428230Y211852D01*
X428212Y211901D01*
X428204Y211952D01*
X428170Y212016D01*
X428145Y212083D01*
X428113Y212124D01*
X428088Y212170D01*
X428036Y212219D01*
X427992Y212275D01*
X427948Y212303D01*
X427910Y212339D01*
X427845Y212369D01*
X427785Y212408D01*
X427734Y212421D01*
X427687Y212443D01*
X427616Y212451D01*
X427546Y212468D01*
X427494Y212464D01*
X427443Y212470D01*
X427372Y212455D01*
X427301Y212449D01*
X427253Y212429D01*
X427202Y212418D01*
X427141Y212381D01*
X427075Y212353D01*
X427019Y212308D01*
X426991Y212291D01*
X426976Y212274D01*
X426944Y212248D01*
X422467Y207771D01*
X416317Y207771D01*
X416226Y207757D01*
X416136Y207749D01*
X416106Y207737D01*
X416074Y207732D01*
X415993Y207689D01*
X415909Y207653D01*
X415877Y207627D01*
X415856Y207616D01*
X415834Y207593D01*
X415778Y207548D01*
X410180Y201950D01*
X407873Y199643D01*
X370089Y199643D01*
X369998Y199629D01*
X369908Y199621D01*
X369878Y199609D01*
X369846Y199604D01*
X369765Y199561D01*
X369681Y199525D01*
X369649Y199499D01*
X369628Y199488D01*
X369606Y199465D01*
X369550Y199420D01*
X325852Y155722D01*
X325799Y155648D01*
X325739Y155578D01*
X325727Y155548D01*
X325708Y155522D01*
X325681Y155435D01*
X325647Y155350D01*
X325643Y155309D01*
X325636Y155287D01*
X325637Y155255D01*
X325629Y155183D01*
X325629Y149033D01*
X320867Y144271D01*
X314717Y144271D01*
X314626Y144257D01*
X314536Y144249D01*
X314506Y144237D01*
X314474Y144232D01*
X314393Y144189D01*
X314309Y144153D01*
X314277Y144127D01*
X314256Y144116D01*
X314234Y144093D01*
X314178Y144048D01*
X306165Y136035D01*
X306088Y135996D01*
X306083Y135991D01*
X306078Y135988D01*
X305998Y135904D01*
X305915Y135820D01*
X305912Y135814D01*
X305908Y135810D01*
X305901Y135793D01*
X305835Y135673D01*
X305595Y135095D01*
X303309Y132809D01*
X300321Y131571D01*
X286124Y131571D01*
X286053Y131560D01*
X285982Y131558D01*
X285933Y131540D01*
X285881Y131532D01*
X285818Y131498D01*
X285751Y131473D01*
X285710Y131441D01*
X285664Y131416D01*
X285615Y131364D01*
X285559Y131320D01*
X285530Y131276D01*
X285495Y131238D01*
X285464Y131173D01*
X285426Y131113D01*
X285413Y131062D01*
X285391Y131015D01*
X285383Y130944D01*
X285366Y130874D01*
X285370Y130822D01*
X285364Y130771D01*
X285379Y130700D01*
X285385Y130629D01*
X285405Y130581D01*
X285416Y130530D01*
X285453Y130469D01*
X285481Y130403D01*
X285526Y130347D01*
X285542Y130319D01*
X285560Y130304D01*
X285586Y130272D01*
X293206Y122652D01*
X293280Y122599D01*
X293349Y122539D01*
X293379Y122527D01*
X293406Y122508D01*
X293493Y122481D01*
X293577Y122447D01*
X293618Y122443D01*
X293641Y122436D01*
X293673Y122437D01*
X293744Y122429D01*
X300321Y122429D01*
X303309Y121191D01*
X305595Y118905D01*
X306833Y115917D01*
X306833Y112683D01*
X305595Y109695D01*
X303309Y107409D01*
X300321Y106171D01*
X283879Y106171D01*
X280891Y107409D01*
X278605Y109695D01*
X277367Y112683D01*
X277367Y115917D01*
X278605Y118905D01*
X280891Y121191D01*
X282466Y121843D01*
X282505Y121868D01*
X282548Y121883D01*
X282609Y121932D01*
X282675Y121973D01*
X282704Y122008D01*
X282740Y122037D01*
X282782Y122102D01*
X282832Y122162D01*
X282848Y122205D01*
X282873Y122244D01*
X282892Y122319D01*
X282920Y122392D01*
X282922Y122438D01*
X282933Y122482D01*
X282927Y122560D01*
X282930Y122638D01*
X282917Y122682D01*
X282914Y122728D01*
X282883Y122799D01*
X282862Y122874D01*
X282835Y122912D01*
X282818Y122954D01*
X282732Y123061D01*
X282721Y123076D01*
X282717Y123079D01*
X282713Y123085D01*
X271779Y134018D01*
X271779Y205475D01*
X271765Y205566D01*
X271757Y205656D01*
X271745Y205686D01*
X271740Y205718D01*
X271697Y205799D01*
X271661Y205883D01*
X271635Y205915D01*
X271624Y205936D01*
X271601Y205958D01*
X271556Y206014D01*
X244622Y232948D01*
X244548Y233001D01*
X244478Y233061D01*
X244448Y233073D01*
X244422Y233092D01*
X244335Y233119D01*
X244250Y233153D01*
X244209Y233157D01*
X244187Y233164D01*
X244155Y233163D01*
X244083Y233171D01*
X237933Y233171D01*
X233171Y237933D01*
X233171Y244667D01*
X237933Y249429D01*
X244667Y249429D01*
X249429Y244667D01*
X249429Y243078D01*
X249432Y243058D01*
X249430Y243039D01*
X249452Y242937D01*
X249468Y242835D01*
X249478Y242818D01*
X249482Y242798D01*
X249535Y242709D01*
X249584Y242618D01*
X249598Y242604D01*
X249608Y242587D01*
X249687Y242520D01*
X249762Y242448D01*
X249780Y242440D01*
X249795Y242427D01*
X249891Y242388D01*
X249985Y242345D01*
X250005Y242343D01*
X250023Y242335D01*
X250190Y242317D01*
X353213Y242317D01*
X357578Y237952D01*
X357652Y237899D01*
X357722Y237839D01*
X357752Y237827D01*
X357778Y237808D01*
X357865Y237781D01*
X357950Y237747D01*
X357991Y237743D01*
X358013Y237736D01*
X358045Y237737D01*
X358117Y237729D01*
X364267Y237729D01*
X369029Y232967D01*
X369029Y226233D01*
X364267Y221471D01*
X357533Y221471D01*
X352771Y226233D01*
X352771Y232383D01*
X352757Y232474D01*
X352749Y232564D01*
X352737Y232594D01*
X352732Y232626D01*
X352711Y232666D01*
X352709Y232672D01*
X352692Y232700D01*
X352689Y232707D01*
X352653Y232791D01*
X352627Y232823D01*
X352616Y232844D01*
X352594Y232865D01*
X352583Y232883D01*
X352571Y232894D01*
X352548Y232922D01*
X350490Y234980D01*
X350416Y235033D01*
X350346Y235093D01*
X350316Y235105D01*
X350290Y235124D01*
X350203Y235151D01*
X350118Y235185D01*
X350077Y235189D01*
X350055Y235196D01*
X350023Y235195D01*
X349951Y235203D01*
X325667Y235203D01*
X325596Y235192D01*
X325525Y235190D01*
X325476Y235172D01*
X325424Y235164D01*
X325361Y235130D01*
X325294Y235105D01*
X325253Y235073D01*
X325207Y235048D01*
X325158Y234996D01*
X325102Y234952D01*
X325073Y234908D01*
X325038Y234870D01*
X325007Y234805D01*
X324969Y234745D01*
X324956Y234694D01*
X324934Y234647D01*
X324926Y234576D01*
X324909Y234506D01*
X324913Y234454D01*
X324907Y234403D01*
X324922Y234332D01*
X324928Y234261D01*
X324948Y234213D01*
X324959Y234162D01*
X324996Y234101D01*
X325024Y234035D01*
X325069Y233979D01*
X325085Y233951D01*
X325103Y233936D01*
X325129Y233904D01*
X326645Y232388D01*
X326645Y230123D01*
X318262Y230123D01*
X318242Y230120D01*
X318223Y230122D01*
X318121Y230100D01*
X318019Y230083D01*
X318002Y230074D01*
X317982Y230070D01*
X317893Y230017D01*
X317802Y229968D01*
X317788Y229954D01*
X317771Y229944D01*
X317704Y229865D01*
X317633Y229790D01*
X317624Y229772D01*
X317611Y229757D01*
X317573Y229661D01*
X317529Y229567D01*
X317527Y229547D01*
X317519Y229529D01*
X317501Y229362D01*
X317501Y228599D01*
X317499Y228599D01*
X317499Y229362D01*
X317497Y229376D01*
X317498Y229387D01*
X317497Y229392D01*
X317498Y229401D01*
X317476Y229503D01*
X317459Y229605D01*
X317450Y229622D01*
X317446Y229642D01*
X317393Y229731D01*
X317344Y229822D01*
X317330Y229836D01*
X317320Y229853D01*
X317241Y229920D01*
X317166Y229991D01*
X317148Y230000D01*
X317133Y230013D01*
X317037Y230052D01*
X316943Y230095D01*
X316923Y230097D01*
X316905Y230105D01*
X316738Y230123D01*
X308355Y230123D01*
X308355Y232388D01*
X309871Y233904D01*
X309913Y233962D01*
X309962Y234014D01*
X309984Y234061D01*
X310015Y234103D01*
X310036Y234172D01*
X310066Y234237D01*
X310072Y234289D01*
X310087Y234339D01*
X310085Y234410D01*
X310093Y234481D01*
X310082Y234532D01*
X310081Y234584D01*
X310056Y234652D01*
X310041Y234722D01*
X310014Y234767D01*
X309996Y234815D01*
X309951Y234871D01*
X309915Y234933D01*
X309875Y234967D01*
X309843Y235007D01*
X309782Y235046D01*
X309728Y235093D01*
X309679Y235112D01*
X309636Y235140D01*
X309566Y235158D01*
X309500Y235185D01*
X309428Y235193D01*
X309397Y235201D01*
X309374Y235199D01*
X309333Y235203D01*
X254265Y235203D01*
X254194Y235192D01*
X254122Y235190D01*
X254073Y235172D01*
X254022Y235164D01*
X253959Y235130D01*
X253891Y235105D01*
X253850Y235073D01*
X253804Y235048D01*
X253755Y234997D01*
X253699Y234952D01*
X253671Y234908D01*
X253635Y234870D01*
X253605Y234805D01*
X253566Y234745D01*
X253553Y234694D01*
X253531Y234647D01*
X253523Y234576D01*
X253506Y234506D01*
X253510Y234454D01*
X253504Y234403D01*
X253520Y234332D01*
X253525Y234261D01*
X253545Y234213D01*
X253557Y234162D01*
X253593Y234101D01*
X253621Y234035D01*
X253666Y233979D01*
X253683Y233951D01*
X253701Y233936D01*
X253726Y233904D01*
X276586Y211044D01*
X278893Y208737D01*
X278893Y146430D01*
X278904Y146360D01*
X278906Y146288D01*
X278924Y146239D01*
X278932Y146188D01*
X278966Y146124D01*
X278991Y146057D01*
X279023Y146016D01*
X279048Y145970D01*
X279100Y145921D01*
X279144Y145865D01*
X279188Y145837D01*
X279226Y145801D01*
X279291Y145771D01*
X279351Y145732D01*
X279402Y145719D01*
X279449Y145697D01*
X279520Y145689D01*
X279590Y145672D01*
X279642Y145676D01*
X279693Y145670D01*
X279764Y145685D01*
X279835Y145691D01*
X279883Y145711D01*
X279934Y145722D01*
X279995Y145759D01*
X280061Y145787D01*
X280117Y145832D01*
X280145Y145849D01*
X280160Y145866D01*
X280192Y145892D01*
X280891Y146591D01*
X283879Y147829D01*
X300321Y147829D01*
X303309Y146591D01*
X304447Y145453D01*
X304463Y145442D01*
X304475Y145426D01*
X304562Y145370D01*
X304646Y145310D01*
X304665Y145304D01*
X304682Y145293D01*
X304783Y145268D01*
X304881Y145237D01*
X304901Y145238D01*
X304921Y145233D01*
X305024Y145241D01*
X305127Y145244D01*
X305146Y145250D01*
X305166Y145252D01*
X305261Y145292D01*
X305358Y145328D01*
X305374Y145341D01*
X305392Y145348D01*
X305523Y145453D01*
X309148Y149078D01*
X309201Y149152D01*
X309261Y149222D01*
X309273Y149252D01*
X309292Y149278D01*
X309319Y149365D01*
X309353Y149450D01*
X309357Y149491D01*
X309364Y149513D01*
X309363Y149545D01*
X309371Y149617D01*
X309371Y155767D01*
X314133Y160529D01*
X320283Y160529D01*
X320374Y160543D01*
X320464Y160551D01*
X320494Y160563D01*
X320526Y160568D01*
X320607Y160611D01*
X320691Y160647D01*
X320723Y160673D01*
X320744Y160684D01*
X320766Y160707D01*
X320822Y160752D01*
X366827Y206757D01*
X404611Y206757D01*
X404702Y206771D01*
X404792Y206779D01*
X404822Y206791D01*
X404854Y206796D01*
X404935Y206839D01*
X405019Y206875D01*
X405051Y206901D01*
X405072Y206912D01*
X405094Y206935D01*
X405150Y206980D01*
X410748Y212578D01*
X410801Y212652D01*
X410861Y212722D01*
X410873Y212752D01*
X410892Y212778D01*
X410919Y212865D01*
X410953Y212950D01*
X410957Y212991D01*
X410964Y213013D01*
X410963Y213045D01*
X410971Y213117D01*
X410971Y219267D01*
X415733Y224029D01*
X422467Y224029D01*
X426944Y219552D01*
X427002Y219510D01*
X427054Y219461D01*
X427101Y219439D01*
X427143Y219408D01*
X427212Y219387D01*
X427277Y219357D01*
X427329Y219351D01*
X427379Y219336D01*
X427450Y219338D01*
X427521Y219330D01*
X427572Y219341D01*
X427624Y219342D01*
X427692Y219367D01*
X427762Y219382D01*
X427807Y219409D01*
X427855Y219427D01*
X427911Y219472D01*
X427973Y219509D01*
X428007Y219548D01*
X428047Y219581D01*
X428086Y219641D01*
X428133Y219695D01*
X428152Y219744D01*
X428180Y219788D01*
X428198Y219857D01*
X428225Y219924D01*
X428233Y219995D01*
X428241Y220026D01*
X428239Y220049D01*
X428243Y220090D01*
X428243Y284373D01*
X432643Y288773D01*
X432711Y288868D01*
X432780Y288961D01*
X432782Y288967D01*
X432786Y288972D01*
X432820Y289084D01*
X432857Y289195D01*
X432857Y289201D01*
X432858Y289207D01*
X432855Y289324D01*
X432854Y289441D01*
X432852Y289448D01*
X432852Y289453D01*
X432846Y289471D01*
X432808Y289602D01*
X432475Y290404D01*
X432475Y293796D01*
X433773Y296929D01*
X436171Y299327D01*
X439304Y300625D01*
X442696Y300625D01*
X445829Y299327D01*
X448227Y296929D01*
X449525Y293796D01*
X449525Y290404D01*
X448227Y287271D01*
X445829Y284873D01*
X442696Y283575D01*
X439304Y283575D01*
X438502Y283908D01*
X438388Y283934D01*
X438275Y283963D01*
X438269Y283962D01*
X438263Y283964D01*
X438146Y283953D01*
X438030Y283944D01*
X438024Y283941D01*
X438018Y283941D01*
X437910Y283893D01*
X437803Y283847D01*
X437798Y283843D01*
X437793Y283841D01*
X437779Y283828D01*
X437673Y283743D01*
X435580Y281650D01*
X435538Y281591D01*
X435489Y281540D01*
X435481Y281522D01*
X435467Y281506D01*
X435455Y281476D01*
X435436Y281450D01*
X435414Y281379D01*
X435386Y281317D01*
X435384Y281299D01*
X435375Y281278D01*
X435371Y281237D01*
X435364Y281215D01*
X435365Y281183D01*
X435357Y281111D01*
X435357Y220090D01*
X435368Y220020D01*
X435370Y219948D01*
X435388Y219899D01*
X435396Y219848D01*
X435430Y219784D01*
X435455Y219717D01*
X435487Y219676D01*
X435512Y219630D01*
X435564Y219581D01*
X435608Y219525D01*
X435652Y219497D01*
X435690Y219461D01*
X435755Y219431D01*
X435815Y219392D01*
X435866Y219379D01*
X435913Y219357D01*
X435984Y219349D01*
X436054Y219332D01*
X436106Y219336D01*
X436157Y219330D01*
X436228Y219345D01*
X436299Y219351D01*
X436347Y219371D01*
X436398Y219382D01*
X436459Y219419D01*
X436525Y219447D01*
X436581Y219492D01*
X436609Y219509D01*
X436624Y219526D01*
X436656Y219552D01*
X441133Y224029D01*
X447867Y224029D01*
X452629Y219267D01*
X452629Y213117D01*
X452643Y213026D01*
X452651Y212936D01*
X452663Y212906D01*
X452668Y212874D01*
X452711Y212793D01*
X452747Y212709D01*
X452773Y212677D01*
X452784Y212656D01*
X452807Y212634D01*
X452852Y212578D01*
X487203Y178227D01*
X487203Y80173D01*
X481618Y74588D01*
X481606Y74571D01*
X481590Y74559D01*
X481562Y74515D01*
X481529Y74480D01*
X481509Y74436D01*
X481474Y74388D01*
X481468Y74369D01*
X481457Y74352D01*
X481443Y74294D01*
X481426Y74257D01*
X481421Y74216D01*
X481402Y74153D01*
X481402Y74133D01*
X481397Y74113D01*
X481402Y74048D01*
X481399Y74013D01*
X481406Y73977D01*
X481408Y73907D01*
X481415Y73888D01*
X481416Y73868D01*
X481444Y73803D01*
X481451Y73772D01*
X481467Y73745D01*
X481492Y73676D01*
X481505Y73660D01*
X481513Y73642D01*
X481576Y73563D01*
X481577Y73561D01*
X481578Y73560D01*
X481615Y73515D01*
X481615Y64886D01*
X475514Y58785D01*
X466886Y58785D01*
X460784Y64887D01*
X460782Y64902D01*
X460784Y64921D01*
X460762Y65023D01*
X460746Y65125D01*
X460736Y65142D01*
X460732Y65162D01*
X460679Y65251D01*
X460630Y65342D01*
X460616Y65356D01*
X460606Y65373D01*
X460527Y65440D01*
X460452Y65512D01*
X460434Y65520D01*
X460419Y65533D01*
X460323Y65572D01*
X460229Y65615D01*
X460209Y65617D01*
X460191Y65625D01*
X460024Y65643D01*
X393527Y65643D01*
X391220Y67950D01*
X374988Y84182D01*
X374971Y84194D01*
X374959Y84210D01*
X374872Y84266D01*
X374788Y84326D01*
X374769Y84332D01*
X374752Y84343D01*
X374652Y84368D01*
X374553Y84398D01*
X374533Y84398D01*
X374513Y84403D01*
X374410Y84395D01*
X374307Y84392D01*
X374288Y84385D01*
X374268Y84384D01*
X374173Y84343D01*
X374076Y84308D01*
X374060Y84295D01*
X374042Y84287D01*
X373915Y84185D01*
X365285Y84185D01*
X365273Y84194D01*
X365260Y84210D01*
X365173Y84266D01*
X365089Y84326D01*
X365070Y84332D01*
X365053Y84343D01*
X364953Y84368D01*
X364854Y84398D01*
X364834Y84398D01*
X364815Y84403D01*
X364712Y84395D01*
X364608Y84392D01*
X364590Y84385D01*
X364570Y84384D01*
X364475Y84343D01*
X364377Y84308D01*
X364362Y84295D01*
X364343Y84287D01*
X364212Y84182D01*
X329813Y49783D01*
X224587Y49783D01*
X219222Y55148D01*
X219148Y55201D01*
X219078Y55261D01*
X219048Y55273D01*
X219022Y55292D01*
X218935Y55319D01*
X218850Y55353D01*
X218809Y55357D01*
X218787Y55364D01*
X218755Y55363D01*
X218683Y55371D01*
X213117Y55371D01*
X213026Y55357D01*
X212936Y55349D01*
X212906Y55337D01*
X212874Y55332D01*
X212793Y55289D01*
X212709Y55253D01*
X212677Y55227D01*
X212656Y55216D01*
X212634Y55193D01*
X212578Y55148D01*
X203776Y46346D01*
X203708Y46252D01*
X203638Y46158D01*
X203636Y46152D01*
X203633Y46147D01*
X203599Y46036D01*
X203562Y45924D01*
X203562Y45918D01*
X203560Y45912D01*
X203563Y45795D01*
X203565Y45678D01*
X203567Y45671D01*
X203567Y45666D01*
X203573Y45648D01*
X203611Y45517D01*
X204845Y42539D01*
X204845Y23661D01*
X203453Y20300D01*
X200880Y17727D01*
X197519Y16335D01*
X193881Y16335D01*
G37*
%LPD*%
%LPC*%
G36*
X102933Y46071D02*
X102933Y46071D01*
X98171Y50833D01*
X98171Y57567D01*
X102520Y61916D01*
X102573Y61990D01*
X102633Y62059D01*
X102645Y62090D01*
X102664Y62116D01*
X102691Y62203D01*
X102725Y62288D01*
X102729Y62329D01*
X102736Y62351D01*
X102735Y62383D01*
X102743Y62454D01*
X102743Y113361D01*
X151988Y162606D01*
X152000Y162622D01*
X152016Y162635D01*
X152046Y162683D01*
X152053Y162690D01*
X152059Y162703D01*
X152072Y162722D01*
X152132Y162806D01*
X152138Y162825D01*
X152149Y162842D01*
X152174Y162942D01*
X152204Y163041D01*
X152204Y163061D01*
X152209Y163080D01*
X152201Y163183D01*
X152198Y163287D01*
X152191Y163306D01*
X152189Y163326D01*
X152149Y163420D01*
X152113Y163518D01*
X152101Y163534D01*
X152093Y163552D01*
X151988Y163683D01*
X150875Y164796D01*
X150875Y176580D01*
X159208Y184913D01*
X170992Y184913D01*
X179325Y176580D01*
X179325Y164796D01*
X170992Y156463D01*
X159208Y156463D01*
X158095Y157576D01*
X158079Y157588D01*
X158066Y157604D01*
X157999Y157647D01*
X157961Y157679D01*
X157940Y157688D01*
X157895Y157720D01*
X157876Y157726D01*
X157859Y157737D01*
X157759Y157762D01*
X157748Y157765D01*
X157733Y157771D01*
X157726Y157772D01*
X157660Y157792D01*
X157640Y157792D01*
X157621Y157797D01*
X157518Y157789D01*
X157414Y157786D01*
X157395Y157779D01*
X157376Y157777D01*
X157315Y157752D01*
X157304Y157750D01*
X157278Y157736D01*
X157183Y157701D01*
X157168Y157689D01*
X157149Y157681D01*
X157101Y157642D01*
X157087Y157635D01*
X157072Y157620D01*
X157018Y157576D01*
X110080Y110638D01*
X110027Y110564D01*
X109967Y110494D01*
X109955Y110464D01*
X109936Y110438D01*
X109909Y110351D01*
X109875Y110266D01*
X109871Y110225D01*
X109864Y110203D01*
X109865Y110171D01*
X109857Y110099D01*
X109857Y62454D01*
X109871Y62364D01*
X109879Y62273D01*
X109891Y62244D01*
X109896Y62212D01*
X109939Y62131D01*
X109975Y62047D01*
X110001Y62015D01*
X110012Y61994D01*
X110035Y61972D01*
X110080Y61916D01*
X114429Y57567D01*
X114429Y50833D01*
X109667Y46071D01*
X102933Y46071D01*
G37*
%LPD*%
%LPC*%
G36*
X159733Y95171D02*
X159733Y95171D01*
X154971Y99933D01*
X154971Y106667D01*
X159733Y111429D01*
X166467Y111429D01*
X170816Y107080D01*
X170890Y107027D01*
X170959Y106967D01*
X170990Y106955D01*
X171016Y106936D01*
X171103Y106909D01*
X171188Y106875D01*
X171229Y106871D01*
X171251Y106864D01*
X171283Y106865D01*
X171354Y106857D01*
X203111Y106857D01*
X203201Y106871D01*
X203292Y106879D01*
X203322Y106891D01*
X203354Y106896D01*
X203435Y106939D01*
X203519Y106975D01*
X203551Y107001D01*
X203572Y107012D01*
X203594Y107035D01*
X203650Y107080D01*
X203797Y107227D01*
X203808Y107243D01*
X203824Y107255D01*
X203880Y107343D01*
X203940Y107426D01*
X203946Y107446D01*
X203957Y107462D01*
X203982Y107563D01*
X204013Y107662D01*
X204012Y107682D01*
X204017Y107701D01*
X204009Y107804D01*
X204006Y107907D01*
X204000Y107926D01*
X203998Y107946D01*
X203958Y108041D01*
X203922Y108138D01*
X203909Y108154D01*
X203902Y108172D01*
X203797Y108303D01*
X202405Y109695D01*
X201167Y112683D01*
X201167Y115917D01*
X202405Y118905D01*
X204691Y121191D01*
X207679Y122429D01*
X218683Y122429D01*
X218774Y122443D01*
X218864Y122451D01*
X218894Y122463D01*
X218926Y122468D01*
X219007Y122511D01*
X219091Y122547D01*
X219123Y122573D01*
X219144Y122584D01*
X219166Y122607D01*
X219222Y122652D01*
X226401Y129831D01*
X226457Y129910D01*
X226520Y129985D01*
X226529Y130009D01*
X226544Y130030D01*
X226573Y130123D01*
X226608Y130214D01*
X226609Y130240D01*
X226617Y130265D01*
X226614Y130363D01*
X226618Y130460D01*
X226611Y130485D01*
X226610Y130511D01*
X226577Y130603D01*
X226550Y130696D01*
X226535Y130718D01*
X226526Y130742D01*
X226465Y130819D01*
X226409Y130898D01*
X226388Y130914D01*
X226372Y130934D01*
X226290Y130987D01*
X226212Y131045D01*
X226187Y131053D01*
X226165Y131067D01*
X226071Y131091D01*
X225978Y131121D01*
X225952Y131121D01*
X225927Y131127D01*
X225830Y131120D01*
X225732Y131119D01*
X225701Y131110D01*
X225681Y131108D01*
X225651Y131095D01*
X225571Y131072D01*
X225171Y130907D01*
X223405Y130555D01*
X217423Y130555D01*
X217423Y138177D01*
X231525Y138177D01*
X231297Y137033D01*
X231132Y136633D01*
X231109Y136538D01*
X231081Y136445D01*
X231082Y136419D01*
X231076Y136393D01*
X231085Y136297D01*
X231087Y136199D01*
X231096Y136175D01*
X231099Y136149D01*
X231138Y136060D01*
X231172Y135968D01*
X231188Y135948D01*
X231199Y135924D01*
X231265Y135852D01*
X231325Y135776D01*
X231347Y135762D01*
X231365Y135743D01*
X231450Y135696D01*
X231532Y135643D01*
X231558Y135637D01*
X231581Y135624D01*
X231677Y135607D01*
X231771Y135583D01*
X231797Y135585D01*
X231823Y135580D01*
X231919Y135595D01*
X232016Y135602D01*
X232040Y135612D01*
X232066Y135616D01*
X232153Y135660D01*
X232242Y135698D01*
X232268Y135719D01*
X232285Y135728D01*
X232308Y135751D01*
X232373Y135803D01*
X237520Y140950D01*
X237573Y141024D01*
X237633Y141094D01*
X237645Y141124D01*
X237664Y141150D01*
X237691Y141237D01*
X237725Y141322D01*
X237729Y141363D01*
X237736Y141385D01*
X237735Y141417D01*
X237743Y141489D01*
X237743Y156846D01*
X237729Y156936D01*
X237721Y157027D01*
X237709Y157056D01*
X237704Y157088D01*
X237661Y157169D01*
X237625Y157253D01*
X237599Y157285D01*
X237588Y157306D01*
X237565Y157328D01*
X237520Y157384D01*
X233171Y161733D01*
X233171Y168467D01*
X237933Y173229D01*
X244667Y173229D01*
X249429Y168467D01*
X249429Y161733D01*
X245080Y157384D01*
X245027Y157310D01*
X244967Y157241D01*
X244955Y157210D01*
X244936Y157184D01*
X244909Y157097D01*
X244875Y157012D01*
X244871Y156971D01*
X244864Y156949D01*
X244865Y156917D01*
X244857Y156846D01*
X244857Y138227D01*
X228003Y121373D01*
X227992Y121357D01*
X227976Y121345D01*
X227920Y121257D01*
X227860Y121173D01*
X227854Y121154D01*
X227843Y121138D01*
X227818Y121037D01*
X227787Y120938D01*
X227788Y120918D01*
X227783Y120899D01*
X227791Y120796D01*
X227794Y120692D01*
X227800Y120674D01*
X227802Y120654D01*
X227842Y120559D01*
X227878Y120461D01*
X227891Y120446D01*
X227898Y120428D01*
X228003Y120297D01*
X229395Y118905D01*
X230633Y115917D01*
X230633Y112683D01*
X229395Y109695D01*
X227109Y107409D01*
X224121Y106171D01*
X213117Y106171D01*
X213026Y106157D01*
X212936Y106149D01*
X212906Y106137D01*
X212874Y106132D01*
X212793Y106089D01*
X212709Y106053D01*
X212677Y106027D01*
X212656Y106016D01*
X212634Y105993D01*
X212578Y105948D01*
X208680Y102050D01*
X206373Y99743D01*
X171354Y99743D01*
X171264Y99729D01*
X171173Y99721D01*
X171144Y99709D01*
X171112Y99704D01*
X171031Y99661D01*
X170947Y99625D01*
X170915Y99599D01*
X170894Y99588D01*
X170872Y99565D01*
X170816Y99520D01*
X166467Y95171D01*
X159733Y95171D01*
G37*
%LPD*%
%LPC*%
G36*
X170299Y33099D02*
X170299Y33099D01*
X170299Y33862D01*
X170296Y33882D01*
X170298Y33901D01*
X170276Y34003D01*
X170259Y34105D01*
X170250Y34122D01*
X170246Y34142D01*
X170193Y34231D01*
X170144Y34322D01*
X170130Y34336D01*
X170120Y34353D01*
X170041Y34420D01*
X169966Y34491D01*
X169948Y34500D01*
X169933Y34513D01*
X169837Y34552D01*
X169743Y34595D01*
X169723Y34597D01*
X169705Y34605D01*
X169538Y34623D01*
X160139Y34623D01*
X160139Y41520D01*
X160389Y43099D01*
X160884Y44620D01*
X161610Y46045D01*
X162550Y47339D01*
X163681Y48470D01*
X164776Y49266D01*
X164782Y49272D01*
X164789Y49276D01*
X164868Y49359D01*
X164949Y49441D01*
X164953Y49448D01*
X164958Y49454D01*
X165007Y49558D01*
X165058Y49662D01*
X165059Y49670D01*
X165062Y49677D01*
X165075Y49791D01*
X165090Y49906D01*
X165088Y49914D01*
X165089Y49921D01*
X165065Y50034D01*
X165042Y50147D01*
X165039Y50154D01*
X165037Y50162D01*
X164978Y50260D01*
X164921Y50361D01*
X164915Y50366D01*
X164911Y50373D01*
X164824Y50447D01*
X164737Y50525D01*
X164730Y50528D01*
X164724Y50533D01*
X164616Y50576D01*
X164511Y50621D01*
X164503Y50622D01*
X164496Y50625D01*
X164329Y50643D01*
X139954Y50643D01*
X139864Y50629D01*
X139773Y50621D01*
X139744Y50609D01*
X139712Y50604D01*
X139631Y50561D01*
X139547Y50525D01*
X139515Y50499D01*
X139494Y50488D01*
X139472Y50465D01*
X139416Y50420D01*
X135067Y46071D01*
X128333Y46071D01*
X123571Y50833D01*
X123571Y57567D01*
X128333Y62329D01*
X135067Y62329D01*
X139416Y57980D01*
X139490Y57927D01*
X139559Y57867D01*
X139590Y57855D01*
X139616Y57836D01*
X139703Y57809D01*
X139788Y57775D01*
X139829Y57771D01*
X139851Y57764D01*
X139883Y57765D01*
X139954Y57757D01*
X179411Y57757D01*
X179502Y57771D01*
X179592Y57779D01*
X179622Y57791D01*
X179654Y57796D01*
X179735Y57839D01*
X179819Y57875D01*
X179851Y57901D01*
X179872Y57912D01*
X179894Y57935D01*
X179950Y57980D01*
X203797Y81827D01*
X203808Y81843D01*
X203824Y81855D01*
X203880Y81943D01*
X203940Y82027D01*
X203946Y82046D01*
X203957Y82062D01*
X203982Y82163D01*
X204013Y82262D01*
X204012Y82282D01*
X204017Y82301D01*
X204009Y82404D01*
X204006Y82508D01*
X204000Y82526D01*
X203998Y82546D01*
X203958Y82641D01*
X203922Y82739D01*
X203909Y82754D01*
X203902Y82772D01*
X203797Y82903D01*
X202405Y84295D01*
X201167Y87283D01*
X201167Y90517D01*
X202405Y93505D01*
X204691Y95791D01*
X207679Y97029D01*
X224121Y97029D01*
X227109Y95791D01*
X229395Y93505D01*
X230633Y90517D01*
X230633Y87283D01*
X229395Y84295D01*
X227109Y82009D01*
X224121Y80771D01*
X213117Y80771D01*
X213026Y80757D01*
X212936Y80749D01*
X212906Y80737D01*
X212874Y80732D01*
X212793Y80689D01*
X212709Y80653D01*
X212677Y80627D01*
X212656Y80616D01*
X212634Y80593D01*
X212578Y80548D01*
X182673Y50643D01*
X176271Y50643D01*
X176263Y50642D01*
X176255Y50643D01*
X176142Y50622D01*
X176028Y50604D01*
X176021Y50600D01*
X176013Y50598D01*
X175912Y50542D01*
X175811Y50488D01*
X175806Y50483D01*
X175799Y50479D01*
X175721Y50393D01*
X175642Y50310D01*
X175638Y50303D01*
X175633Y50297D01*
X175587Y50191D01*
X175538Y50087D01*
X175537Y50079D01*
X175534Y50072D01*
X175524Y49957D01*
X175511Y49843D01*
X175513Y49835D01*
X175512Y49827D01*
X175539Y49714D01*
X175563Y49602D01*
X175567Y49595D01*
X175569Y49588D01*
X175630Y49490D01*
X175689Y49391D01*
X175695Y49386D01*
X175700Y49379D01*
X175824Y49266D01*
X176919Y48470D01*
X178050Y47339D01*
X178990Y46045D01*
X179716Y44620D01*
X180211Y43099D01*
X180461Y41520D01*
X180461Y34623D01*
X171062Y34623D01*
X171042Y34620D01*
X171023Y34622D01*
X170921Y34600D01*
X170819Y34583D01*
X170802Y34574D01*
X170782Y34570D01*
X170693Y34517D01*
X170602Y34468D01*
X170588Y34454D01*
X170571Y34444D01*
X170504Y34365D01*
X170433Y34290D01*
X170424Y34272D01*
X170411Y34257D01*
X170373Y34161D01*
X170329Y34067D01*
X170327Y34047D01*
X170319Y34029D01*
X170301Y33862D01*
X170301Y33099D01*
X170299Y33099D01*
G37*
%LPD*%
%LPC*%
G36*
X283879Y80771D02*
X283879Y80771D01*
X280891Y82009D01*
X278605Y84295D01*
X277367Y87283D01*
X277367Y90517D01*
X278605Y93505D01*
X280891Y95791D01*
X283879Y97029D01*
X300321Y97029D01*
X303309Y95791D01*
X305595Y93505D01*
X306833Y90517D01*
X306833Y87283D01*
X305595Y84295D01*
X303309Y82009D01*
X300321Y80771D01*
X283879Y80771D01*
G37*
%LPD*%
%LPC*%
G36*
X166623Y237235D02*
X166623Y237235D01*
X166623Y250953D01*
X171413Y250953D01*
X180341Y242025D01*
X180341Y237235D01*
X166623Y237235D01*
G37*
%LPD*%
%LPC*%
G36*
X166623Y234189D02*
X166623Y234189D01*
X180341Y234189D01*
X180341Y229399D01*
X171413Y220471D01*
X166623Y220471D01*
X166623Y234189D01*
G37*
%LPD*%
%LPC*%
G36*
X149859Y237235D02*
X149859Y237235D01*
X149859Y242025D01*
X158787Y250953D01*
X163577Y250953D01*
X163577Y237235D01*
X149859Y237235D01*
G37*
%LPD*%
%LPC*%
G36*
X158787Y220471D02*
X158787Y220471D01*
X149859Y229399D01*
X149859Y234189D01*
X163577Y234189D01*
X163577Y220471D01*
X158787Y220471D01*
G37*
%LPD*%
%LPC*%
G36*
X171823Y31577D02*
X171823Y31577D01*
X180461Y31577D01*
X180461Y24680D01*
X180211Y23101D01*
X179716Y21580D01*
X178990Y20155D01*
X178050Y18861D01*
X176919Y17730D01*
X175625Y16790D01*
X174200Y16064D01*
X172679Y15569D01*
X171823Y15434D01*
X171823Y31577D01*
G37*
%LPD*%
%LPC*%
G36*
X167921Y15569D02*
X167921Y15569D01*
X166400Y16064D01*
X164975Y16790D01*
X163681Y17730D01*
X162550Y18861D01*
X161610Y20155D01*
X160884Y21580D01*
X160389Y23101D01*
X160139Y24680D01*
X160139Y31577D01*
X168777Y31577D01*
X168777Y15434D01*
X167921Y15569D01*
G37*
%LPD*%
%LPC*%
G36*
X217423Y141223D02*
X217423Y141223D01*
X217423Y148845D01*
X223405Y148845D01*
X225171Y148493D01*
X226836Y147804D01*
X228334Y146803D01*
X229607Y145530D01*
X230608Y144032D01*
X231297Y142367D01*
X231525Y141223D01*
X217423Y141223D01*
G37*
%LPD*%
%LPC*%
G36*
X200275Y141223D02*
X200275Y141223D01*
X200503Y142367D01*
X201192Y144032D01*
X202193Y145530D01*
X203466Y146803D01*
X204964Y147804D01*
X206629Y148493D01*
X208395Y148845D01*
X214377Y148845D01*
X214377Y141223D01*
X200275Y141223D01*
G37*
%LPD*%
%LPC*%
G36*
X208395Y130555D02*
X208395Y130555D01*
X206629Y130907D01*
X204964Y131596D01*
X203466Y132597D01*
X202193Y133870D01*
X201192Y135368D01*
X200503Y137033D01*
X200275Y138177D01*
X214377Y138177D01*
X214377Y130555D01*
X208395Y130555D01*
G37*
%LPD*%
%LPC*%
G36*
X442523Y369823D02*
X442523Y369823D01*
X442523Y377725D01*
X443783Y377474D01*
X445519Y376755D01*
X447082Y375711D01*
X448411Y374382D01*
X449455Y372819D01*
X450174Y371083D01*
X450425Y369823D01*
X442523Y369823D01*
G37*
%LPD*%
%LPC*%
G36*
X431575Y369823D02*
X431575Y369823D01*
X431826Y371083D01*
X432545Y372819D01*
X433589Y374382D01*
X434918Y375711D01*
X436481Y376755D01*
X438217Y377474D01*
X439477Y377725D01*
X439477Y369823D01*
X431575Y369823D01*
G37*
%LPD*%
%LPC*%
G36*
X442523Y366777D02*
X442523Y366777D01*
X450425Y366777D01*
X450174Y365517D01*
X449455Y363781D01*
X448411Y362218D01*
X447082Y360889D01*
X445519Y359845D01*
X443783Y359126D01*
X442523Y358875D01*
X442523Y366777D01*
G37*
%LPD*%
%LPC*%
G36*
X438217Y359126D02*
X438217Y359126D01*
X436481Y359845D01*
X434918Y360889D01*
X433589Y362218D01*
X432545Y363781D01*
X431826Y365517D01*
X431575Y366777D01*
X439477Y366777D01*
X439477Y358875D01*
X438217Y359126D01*
G37*
%LPD*%
%LPC*%
G36*
X336723Y130523D02*
X336723Y130523D01*
X336723Y138145D01*
X338988Y138145D01*
X344345Y132788D01*
X344345Y130523D01*
X336723Y130523D01*
G37*
%LPD*%
%LPC*%
G36*
X139223Y104823D02*
X139223Y104823D01*
X139223Y112445D01*
X141488Y112445D01*
X146845Y107088D01*
X146845Y104823D01*
X139223Y104823D01*
G37*
%LPD*%
%LPC*%
G36*
X128555Y104823D02*
X128555Y104823D01*
X128555Y107088D01*
X133912Y112445D01*
X136177Y112445D01*
X136177Y104823D01*
X128555Y104823D01*
G37*
%LPD*%
%LPC*%
G36*
X326055Y130523D02*
X326055Y130523D01*
X326055Y132788D01*
X331412Y138145D01*
X333677Y138145D01*
X333677Y130523D01*
X326055Y130523D01*
G37*
%LPD*%
%LPC*%
G36*
X336723Y119855D02*
X336723Y119855D01*
X336723Y127477D01*
X344345Y127477D01*
X344345Y125212D01*
X338988Y119855D01*
X336723Y119855D01*
G37*
%LPD*%
%LPC*%
G36*
X139223Y94155D02*
X139223Y94155D01*
X139223Y101777D01*
X146845Y101777D01*
X146845Y99512D01*
X141488Y94155D01*
X139223Y94155D01*
G37*
%LPD*%
%LPC*%
G36*
X319023Y219455D02*
X319023Y219455D01*
X319023Y227077D01*
X326645Y227077D01*
X326645Y224812D01*
X321288Y219455D01*
X319023Y219455D01*
G37*
%LPD*%
%LPC*%
G36*
X331412Y119855D02*
X331412Y119855D01*
X326055Y125212D01*
X326055Y127477D01*
X333677Y127477D01*
X333677Y119855D01*
X331412Y119855D01*
G37*
%LPD*%
%LPC*%
G36*
X313712Y219455D02*
X313712Y219455D01*
X308355Y224812D01*
X308355Y227077D01*
X315977Y227077D01*
X315977Y219455D01*
X313712Y219455D01*
G37*
%LPD*%
%LPC*%
G36*
X133912Y94155D02*
X133912Y94155D01*
X128555Y99512D01*
X128555Y101777D01*
X136177Y101777D01*
X136177Y94155D01*
X133912Y94155D01*
G37*
%LPD*%
%LPC*%
G36*
X440999Y368299D02*
X440999Y368299D01*
X440999Y368301D01*
X441001Y368301D01*
X441001Y368299D01*
X440999Y368299D01*
G37*
%LPD*%
%LPC*%
G36*
X165099Y235711D02*
X165099Y235711D01*
X165099Y235713D01*
X165101Y235713D01*
X165101Y235711D01*
X165099Y235711D01*
G37*
%LPD*%
%LPC*%
G36*
X215899Y139699D02*
X215899Y139699D01*
X215899Y139701D01*
X215901Y139701D01*
X215901Y139699D01*
X215899Y139699D01*
G37*
%LPD*%
%LPC*%
G36*
X335199Y128999D02*
X335199Y128999D01*
X335199Y129001D01*
X335201Y129001D01*
X335201Y128999D01*
X335199Y128999D01*
G37*
%LPD*%
%LPC*%
G36*
X137699Y103299D02*
X137699Y103299D01*
X137699Y103301D01*
X137701Y103301D01*
X137701Y103299D01*
X137699Y103299D01*
G37*
%LPD*%
D10*
X163100Y103300D03*
X137700Y103300D03*
D11*
X335200Y103600D03*
X335200Y129000D03*
D10*
X131700Y54200D03*
X106300Y54200D03*
D12*
X209296Y139700D02*
X222504Y139700D01*
X222504Y114300D02*
X209296Y114300D01*
X285496Y114300D02*
X298704Y114300D01*
X298704Y139700D02*
X285496Y139700D01*
X222504Y88900D02*
X209296Y88900D01*
X209296Y63500D02*
X222504Y63500D01*
X285496Y88900D02*
X298704Y88900D01*
X298704Y63500D02*
X285496Y63500D01*
D13*
X441000Y292100D03*
X441000Y368300D03*
D10*
X419100Y215900D03*
X431800Y196850D03*
X444500Y215900D03*
D14*
X360900Y229600D03*
X360900Y153400D03*
D11*
X241300Y165100D03*
X241300Y241300D03*
D14*
X317500Y228600D03*
X317500Y152400D03*
D15*
X471200Y69200D03*
X471200Y120000D03*
X369600Y94600D03*
D16*
X165100Y170688D03*
X165100Y235712D03*
D17*
X195700Y40720D02*
X195700Y25480D01*
X170300Y25480D02*
X170300Y40720D01*
D18*
X181200Y54200D02*
X131700Y54200D01*
X181200Y54200D02*
X215900Y88900D01*
X165100Y170688D02*
X106300Y111888D01*
X106300Y54200D01*
X295100Y63500D02*
X335200Y103600D01*
X295100Y63500D02*
X292100Y63500D01*
X360900Y229600D02*
X351740Y238760D01*
X292100Y118728D02*
X292100Y114300D01*
X292100Y118728D02*
X275336Y135492D01*
X275336Y207264D02*
X241300Y241300D01*
X275336Y207264D02*
X275336Y135492D01*
X243840Y238760D02*
X241300Y241300D01*
X243840Y238760D02*
X351740Y238760D01*
X215900Y114300D02*
X204900Y103300D01*
X163100Y103300D01*
X241300Y139700D02*
X241300Y165100D01*
X241300Y139700D02*
X215900Y114300D01*
X304800Y139700D02*
X317500Y152400D01*
X304800Y139700D02*
X292100Y139700D01*
X406400Y203200D02*
X419100Y215900D01*
X368300Y203200D02*
X317500Y152400D01*
X368300Y203200D02*
X406400Y203200D01*
X431800Y159400D02*
X471200Y120000D01*
X431800Y159400D02*
X431800Y196850D01*
X431800Y282900D01*
X441000Y292100D01*
X360900Y153400D02*
X360900Y103300D01*
X369600Y94600D01*
X395000Y69200D01*
X471200Y69200D01*
X226060Y53340D02*
X215900Y63500D01*
X226060Y53340D02*
X328340Y53340D01*
X369600Y94600D01*
X215900Y63500D02*
X195700Y43300D01*
X195700Y33100D01*
X444500Y215900D02*
X483646Y176754D01*
X483646Y81646D01*
X471200Y69200D01*
M02*
