G04 EAGLE Gerber RS-274X export*
G75*
%MOMM*%
%FSLAX34Y34*%
%LPD*%
%INBottom Copper*%
%IPPOS*%
%AMOC8*
5,1,8,0,0,1.08239X$1,22.5*%
G01*
%ADD10P,1.429621X8X202.500000*%
%ADD11P,1.429621X8X112.500000*%
%ADD12C,1.320800*%
%ADD13C,1.400000*%
%ADD14P,1.429621X8X292.500000*%
%ADD15P,1.924489X8X112.500000*%
%ADD16P,2.749271X8X112.500000*%
%ADD17C,1.524000*%


D10*
X163100Y103300D03*
X137700Y103300D03*
D11*
X335200Y103600D03*
X335200Y129000D03*
D10*
X131700Y54200D03*
X106300Y54200D03*
D12*
X209296Y139700D02*
X222504Y139700D01*
X222504Y114300D02*
X209296Y114300D01*
X285496Y114300D02*
X298704Y114300D01*
X298704Y139700D02*
X285496Y139700D01*
X222504Y88900D02*
X209296Y88900D01*
X209296Y63500D02*
X222504Y63500D01*
X285496Y88900D02*
X298704Y88900D01*
X298704Y63500D02*
X285496Y63500D01*
D13*
X441000Y292100D03*
X441000Y368300D03*
D10*
X419100Y215900D03*
X431800Y196850D03*
X444500Y215900D03*
D14*
X360900Y229600D03*
X360900Y153400D03*
D11*
X241300Y165100D03*
X241300Y241300D03*
D14*
X317500Y228600D03*
X317500Y152400D03*
D15*
X471200Y69200D03*
X471200Y120000D03*
X369600Y94600D03*
D16*
X165100Y170688D03*
X165100Y235712D03*
D17*
X195700Y40720D02*
X195700Y25480D01*
X170300Y25480D02*
X170300Y40720D01*
M02*
