G04 EAGLE Gerber RS-274X export*
G75*
%MOMM*%
%FSLAX34Y34*%
%LPD*%
%INSilkscreen Bottom*%
%IPPOS*%
%AMOC8*
5,1,8,0,0,1.08239X$1,22.5*%
G01*
%ADD10C,0.101600*%


D10*
X345492Y355508D02*
X341089Y368716D01*
X336687Y355508D01*
X337787Y358810D02*
X344391Y358810D01*
X331895Y357709D02*
X331895Y368716D01*
X331895Y357709D02*
X331893Y357618D01*
X331887Y357527D01*
X331878Y357437D01*
X331865Y357347D01*
X331848Y357257D01*
X331828Y357169D01*
X331803Y357081D01*
X331776Y356994D01*
X331744Y356909D01*
X331710Y356825D01*
X331671Y356742D01*
X331630Y356661D01*
X331585Y356582D01*
X331537Y356505D01*
X331485Y356430D01*
X331431Y356357D01*
X331374Y356286D01*
X331313Y356218D01*
X331250Y356153D01*
X331185Y356090D01*
X331117Y356029D01*
X331046Y355972D01*
X330973Y355918D01*
X330898Y355866D01*
X330821Y355818D01*
X330742Y355773D01*
X330661Y355732D01*
X330578Y355693D01*
X330494Y355659D01*
X330409Y355627D01*
X330322Y355600D01*
X330234Y355575D01*
X330146Y355555D01*
X330056Y355538D01*
X329966Y355525D01*
X329876Y355516D01*
X329785Y355510D01*
X329694Y355508D01*
X322743Y360644D02*
X319441Y360644D01*
X322743Y360644D02*
X322843Y360642D01*
X322942Y360636D01*
X323041Y360627D01*
X323140Y360613D01*
X323238Y360596D01*
X323335Y360575D01*
X323432Y360550D01*
X323527Y360521D01*
X323621Y360489D01*
X323714Y360453D01*
X323806Y360414D01*
X323896Y360371D01*
X323984Y360324D01*
X324070Y360275D01*
X324154Y360222D01*
X324236Y360165D01*
X324316Y360106D01*
X324394Y360043D01*
X324469Y359978D01*
X324541Y359909D01*
X324611Y359838D01*
X324678Y359765D01*
X324742Y359688D01*
X324803Y359610D01*
X324861Y359528D01*
X324915Y359445D01*
X324967Y359360D01*
X325015Y359273D01*
X325060Y359184D01*
X325101Y359093D01*
X325139Y359001D01*
X325173Y358907D01*
X325203Y358813D01*
X325230Y358717D01*
X325253Y358620D01*
X325272Y358522D01*
X325287Y358424D01*
X325299Y358325D01*
X325307Y358225D01*
X325311Y358126D01*
X325311Y358026D01*
X325307Y357927D01*
X325299Y357827D01*
X325287Y357728D01*
X325272Y357630D01*
X325253Y357532D01*
X325230Y357435D01*
X325203Y357339D01*
X325173Y357245D01*
X325139Y357151D01*
X325101Y357059D01*
X325060Y356968D01*
X325015Y356879D01*
X324967Y356792D01*
X324915Y356707D01*
X324861Y356624D01*
X324803Y356542D01*
X324742Y356464D01*
X324678Y356387D01*
X324611Y356314D01*
X324541Y356243D01*
X324469Y356174D01*
X324394Y356109D01*
X324316Y356046D01*
X324236Y355987D01*
X324154Y355930D01*
X324070Y355877D01*
X323984Y355828D01*
X323896Y355781D01*
X323806Y355738D01*
X323714Y355699D01*
X323621Y355663D01*
X323527Y355631D01*
X323432Y355602D01*
X323335Y355577D01*
X323238Y355556D01*
X323140Y355539D01*
X323041Y355525D01*
X322942Y355516D01*
X322843Y355510D01*
X322743Y355508D01*
X319441Y355508D01*
X319441Y362112D01*
X319443Y362203D01*
X319449Y362294D01*
X319458Y362384D01*
X319471Y362474D01*
X319488Y362564D01*
X319508Y362652D01*
X319533Y362740D01*
X319560Y362827D01*
X319592Y362912D01*
X319626Y362996D01*
X319665Y363079D01*
X319706Y363160D01*
X319751Y363239D01*
X319799Y363316D01*
X319851Y363391D01*
X319905Y363464D01*
X319962Y363535D01*
X320023Y363603D01*
X320086Y363668D01*
X320151Y363731D01*
X320220Y363792D01*
X320290Y363849D01*
X320363Y363903D01*
X320438Y363955D01*
X320515Y364003D01*
X320594Y364048D01*
X320675Y364089D01*
X320758Y364128D01*
X320842Y364162D01*
X320927Y364194D01*
X321014Y364222D01*
X321102Y364246D01*
X321190Y364266D01*
X321280Y364283D01*
X321370Y364296D01*
X321460Y364305D01*
X321551Y364311D01*
X321642Y364313D01*
X324578Y364313D01*
X313230Y364313D02*
X313230Y355508D01*
X313230Y364313D02*
X308828Y364313D01*
X308828Y362846D01*
X304100Y364313D02*
X304100Y355508D01*
X304100Y364313D02*
X297496Y364313D01*
X297405Y364311D01*
X297314Y364305D01*
X297224Y364296D01*
X297134Y364283D01*
X297044Y364266D01*
X296956Y364246D01*
X296868Y364221D01*
X296781Y364194D01*
X296696Y364162D01*
X296612Y364128D01*
X296529Y364089D01*
X296448Y364048D01*
X296369Y364003D01*
X296292Y363955D01*
X296217Y363903D01*
X296144Y363849D01*
X296073Y363792D01*
X296005Y363731D01*
X295940Y363668D01*
X295877Y363603D01*
X295816Y363535D01*
X295759Y363464D01*
X295705Y363391D01*
X295653Y363316D01*
X295605Y363239D01*
X295560Y363160D01*
X295519Y363079D01*
X295480Y362996D01*
X295446Y362912D01*
X295414Y362827D01*
X295387Y362740D01*
X295362Y362652D01*
X295342Y362564D01*
X295325Y362474D01*
X295312Y362384D01*
X295303Y362294D01*
X295297Y362203D01*
X295295Y362112D01*
X295295Y355508D01*
X299698Y355508D02*
X299698Y364313D01*
X282150Y364313D02*
X282150Y357709D01*
X282148Y357618D01*
X282142Y357527D01*
X282133Y357437D01*
X282120Y357347D01*
X282103Y357257D01*
X282083Y357169D01*
X282058Y357081D01*
X282031Y356994D01*
X281999Y356909D01*
X281965Y356825D01*
X281926Y356742D01*
X281885Y356661D01*
X281840Y356582D01*
X281792Y356505D01*
X281740Y356430D01*
X281686Y356357D01*
X281629Y356286D01*
X281568Y356218D01*
X281505Y356153D01*
X281440Y356090D01*
X281372Y356029D01*
X281301Y355972D01*
X281228Y355918D01*
X281153Y355866D01*
X281076Y355818D01*
X280997Y355773D01*
X280916Y355732D01*
X280833Y355693D01*
X280749Y355659D01*
X280664Y355627D01*
X280577Y355600D01*
X280489Y355575D01*
X280401Y355555D01*
X280311Y355538D01*
X280221Y355525D01*
X280131Y355516D01*
X280040Y355510D01*
X279949Y355508D01*
X276280Y355508D01*
X276280Y364313D01*
X269528Y360644D02*
X265859Y359177D01*
X269529Y360644D02*
X269608Y360678D01*
X269686Y360716D01*
X269763Y360757D01*
X269837Y360801D01*
X269909Y360849D01*
X269979Y360900D01*
X270046Y360954D01*
X270111Y361011D01*
X270174Y361072D01*
X270233Y361134D01*
X270290Y361200D01*
X270343Y361268D01*
X270394Y361338D01*
X270441Y361411D01*
X270485Y361486D01*
X270525Y361562D01*
X270562Y361641D01*
X270595Y361720D01*
X270625Y361802D01*
X270651Y361884D01*
X270673Y361968D01*
X270691Y362053D01*
X270705Y362138D01*
X270716Y362224D01*
X270722Y362310D01*
X270725Y362397D01*
X270724Y362484D01*
X270718Y362570D01*
X270709Y362656D01*
X270696Y362742D01*
X270679Y362827D01*
X270658Y362911D01*
X270634Y362994D01*
X270605Y363075D01*
X270573Y363156D01*
X270538Y363235D01*
X270498Y363312D01*
X270456Y363387D01*
X270409Y363460D01*
X270360Y363532D01*
X270308Y363600D01*
X270252Y363667D01*
X270193Y363730D01*
X270132Y363791D01*
X270068Y363850D01*
X270001Y363905D01*
X269932Y363957D01*
X269860Y364006D01*
X269787Y364051D01*
X269711Y364093D01*
X269634Y364132D01*
X269555Y364167D01*
X269474Y364199D01*
X269392Y364227D01*
X269309Y364251D01*
X269225Y364271D01*
X269140Y364287D01*
X269054Y364300D01*
X268968Y364308D01*
X268881Y364313D01*
X268795Y364314D01*
X268794Y364313D02*
X268594Y364308D01*
X268394Y364298D01*
X268194Y364283D01*
X267994Y364263D01*
X267795Y364239D01*
X267597Y364209D01*
X267400Y364175D01*
X267203Y364137D01*
X267008Y364093D01*
X266813Y364045D01*
X266620Y363992D01*
X266428Y363935D01*
X266237Y363873D01*
X266048Y363806D01*
X265861Y363735D01*
X265676Y363659D01*
X265492Y363579D01*
X265859Y359177D02*
X265780Y359143D01*
X265702Y359105D01*
X265625Y359064D01*
X265551Y359020D01*
X265479Y358972D01*
X265409Y358921D01*
X265342Y358867D01*
X265277Y358810D01*
X265214Y358749D01*
X265155Y358687D01*
X265098Y358621D01*
X265045Y358553D01*
X264994Y358483D01*
X264947Y358410D01*
X264903Y358335D01*
X264863Y358259D01*
X264826Y358180D01*
X264793Y358101D01*
X264763Y358019D01*
X264737Y357937D01*
X264715Y357853D01*
X264697Y357768D01*
X264683Y357683D01*
X264672Y357597D01*
X264666Y357511D01*
X264663Y357424D01*
X264664Y357337D01*
X264670Y357251D01*
X264679Y357165D01*
X264692Y357079D01*
X264709Y356994D01*
X264730Y356910D01*
X264754Y356827D01*
X264783Y356746D01*
X264815Y356665D01*
X264850Y356586D01*
X264890Y356509D01*
X264932Y356434D01*
X264979Y356361D01*
X265028Y356289D01*
X265080Y356221D01*
X265136Y356154D01*
X265195Y356091D01*
X265256Y356030D01*
X265320Y355971D01*
X265387Y355916D01*
X265456Y355864D01*
X265528Y355815D01*
X265601Y355770D01*
X265677Y355728D01*
X265754Y355689D01*
X265833Y355654D01*
X265914Y355622D01*
X265996Y355594D01*
X266079Y355570D01*
X266163Y355550D01*
X266248Y355534D01*
X266334Y355521D01*
X266420Y355513D01*
X266507Y355508D01*
X266593Y355507D01*
X266593Y355508D02*
X266887Y355516D01*
X267181Y355531D01*
X267475Y355552D01*
X267768Y355581D01*
X268060Y355616D01*
X268351Y355659D01*
X268641Y355708D01*
X268930Y355764D01*
X269218Y355827D01*
X269504Y355896D01*
X269788Y355973D01*
X270070Y356056D01*
X270351Y356146D01*
X270629Y356242D01*
X259586Y355508D02*
X259586Y364313D01*
X259953Y367982D02*
X259953Y368716D01*
X259219Y368716D01*
X259219Y367982D01*
X259953Y367982D01*
X253987Y364313D02*
X253987Y355508D01*
X253987Y364313D02*
X250318Y364313D01*
X250225Y364311D01*
X250131Y364305D01*
X250038Y364295D01*
X249946Y364281D01*
X249854Y364264D01*
X249763Y364242D01*
X249674Y364217D01*
X249585Y364187D01*
X249497Y364154D01*
X249411Y364118D01*
X249327Y364077D01*
X249245Y364034D01*
X249164Y363986D01*
X249086Y363936D01*
X249009Y363882D01*
X248935Y363824D01*
X248864Y363764D01*
X248795Y363701D01*
X248729Y363635D01*
X248666Y363566D01*
X248606Y363495D01*
X248548Y363421D01*
X248494Y363345D01*
X248444Y363266D01*
X248397Y363185D01*
X248353Y363103D01*
X248312Y363019D01*
X248276Y362933D01*
X248243Y362845D01*
X248213Y362757D01*
X248188Y362667D01*
X248166Y362576D01*
X248149Y362484D01*
X248135Y362392D01*
X248125Y362299D01*
X248119Y362205D01*
X248117Y362112D01*
X248116Y362112D02*
X248116Y355508D01*
X240326Y355508D02*
X236657Y355508D01*
X240326Y355508D02*
X240417Y355510D01*
X240508Y355516D01*
X240598Y355525D01*
X240688Y355538D01*
X240778Y355555D01*
X240866Y355575D01*
X240954Y355600D01*
X241041Y355627D01*
X241126Y355659D01*
X241210Y355693D01*
X241293Y355732D01*
X241374Y355773D01*
X241453Y355818D01*
X241530Y355866D01*
X241605Y355918D01*
X241678Y355972D01*
X241749Y356029D01*
X241817Y356090D01*
X241882Y356153D01*
X241945Y356218D01*
X242006Y356286D01*
X242063Y356357D01*
X242117Y356430D01*
X242169Y356505D01*
X242217Y356582D01*
X242262Y356661D01*
X242303Y356742D01*
X242342Y356825D01*
X242376Y356909D01*
X242408Y356994D01*
X242435Y357081D01*
X242460Y357169D01*
X242480Y357257D01*
X242497Y357347D01*
X242510Y357437D01*
X242519Y357527D01*
X242525Y357618D01*
X242527Y357709D01*
X242528Y357709D02*
X242528Y362112D01*
X242527Y362112D02*
X242525Y362203D01*
X242519Y362294D01*
X242510Y362384D01*
X242497Y362474D01*
X242480Y362564D01*
X242460Y362652D01*
X242435Y362740D01*
X242408Y362827D01*
X242376Y362912D01*
X242342Y362996D01*
X242303Y363079D01*
X242262Y363160D01*
X242217Y363239D01*
X242169Y363316D01*
X242117Y363391D01*
X242063Y363464D01*
X242006Y363535D01*
X241945Y363603D01*
X241882Y363668D01*
X241817Y363731D01*
X241749Y363792D01*
X241678Y363849D01*
X241605Y363903D01*
X241530Y363955D01*
X241453Y364003D01*
X241374Y364048D01*
X241293Y364089D01*
X241210Y364128D01*
X241126Y364162D01*
X241041Y364194D01*
X240954Y364221D01*
X240866Y364246D01*
X240778Y364266D01*
X240688Y364283D01*
X240598Y364296D01*
X240508Y364305D01*
X240417Y364311D01*
X240326Y364313D01*
X236657Y364313D01*
X236657Y353307D01*
X236658Y353307D02*
X236660Y353216D01*
X236666Y353125D01*
X236675Y353035D01*
X236688Y352945D01*
X236705Y352855D01*
X236725Y352767D01*
X236750Y352679D01*
X236777Y352592D01*
X236809Y352507D01*
X236843Y352423D01*
X236882Y352340D01*
X236923Y352259D01*
X236968Y352180D01*
X237016Y352103D01*
X237068Y352028D01*
X237122Y351955D01*
X237179Y351884D01*
X237240Y351816D01*
X237303Y351751D01*
X237368Y351688D01*
X237436Y351627D01*
X237507Y351570D01*
X237580Y351516D01*
X237655Y351464D01*
X237732Y351416D01*
X237811Y351371D01*
X237892Y351330D01*
X237975Y351291D01*
X238059Y351257D01*
X238144Y351225D01*
X238231Y351198D01*
X238319Y351173D01*
X238407Y351153D01*
X238497Y351136D01*
X238587Y351123D01*
X238677Y351114D01*
X238768Y351108D01*
X238859Y351106D01*
X238859Y351105D02*
X241794Y351105D01*
X223627Y351105D02*
X223627Y364313D01*
X219958Y364313D01*
X219865Y364311D01*
X219771Y364305D01*
X219678Y364295D01*
X219586Y364281D01*
X219494Y364264D01*
X219403Y364242D01*
X219314Y364217D01*
X219225Y364187D01*
X219137Y364154D01*
X219051Y364118D01*
X218967Y364077D01*
X218885Y364034D01*
X218804Y363986D01*
X218726Y363936D01*
X218649Y363882D01*
X218575Y363824D01*
X218504Y363764D01*
X218435Y363701D01*
X218369Y363635D01*
X218306Y363566D01*
X218246Y363495D01*
X218188Y363421D01*
X218134Y363345D01*
X218084Y363266D01*
X218037Y363185D01*
X217993Y363103D01*
X217952Y363019D01*
X217916Y362933D01*
X217883Y362845D01*
X217853Y362757D01*
X217828Y362667D01*
X217806Y362576D01*
X217789Y362484D01*
X217775Y362392D01*
X217765Y362299D01*
X217759Y362205D01*
X217757Y362112D01*
X217757Y357709D01*
X217759Y357618D01*
X217765Y357527D01*
X217774Y357437D01*
X217787Y357347D01*
X217804Y357257D01*
X217824Y357169D01*
X217849Y357081D01*
X217876Y356994D01*
X217908Y356909D01*
X217942Y356825D01*
X217981Y356742D01*
X218022Y356661D01*
X218067Y356582D01*
X218115Y356505D01*
X218167Y356430D01*
X218221Y356357D01*
X218278Y356286D01*
X218339Y356218D01*
X218402Y356153D01*
X218467Y356090D01*
X218536Y356029D01*
X218606Y355972D01*
X218679Y355918D01*
X218754Y355866D01*
X218831Y355818D01*
X218910Y355773D01*
X218991Y355732D01*
X219074Y355693D01*
X219158Y355659D01*
X219243Y355627D01*
X219330Y355599D01*
X219418Y355575D01*
X219506Y355555D01*
X219596Y355538D01*
X219686Y355525D01*
X219776Y355516D01*
X219867Y355510D01*
X219958Y355508D01*
X223627Y355508D01*
X212168Y355508D02*
X212168Y368716D01*
X212168Y364313D02*
X208499Y364313D01*
X208406Y364311D01*
X208312Y364305D01*
X208219Y364295D01*
X208127Y364281D01*
X208035Y364264D01*
X207944Y364242D01*
X207855Y364217D01*
X207766Y364187D01*
X207678Y364154D01*
X207592Y364118D01*
X207508Y364077D01*
X207426Y364034D01*
X207345Y363986D01*
X207267Y363936D01*
X207190Y363882D01*
X207116Y363824D01*
X207045Y363764D01*
X206976Y363701D01*
X206910Y363635D01*
X206847Y363566D01*
X206787Y363495D01*
X206729Y363421D01*
X206675Y363345D01*
X206625Y363266D01*
X206578Y363185D01*
X206534Y363103D01*
X206493Y363019D01*
X206457Y362933D01*
X206424Y362845D01*
X206394Y362757D01*
X206369Y362667D01*
X206347Y362576D01*
X206330Y362484D01*
X206316Y362392D01*
X206306Y362299D01*
X206300Y362205D01*
X206298Y362112D01*
X206298Y355508D01*
X200647Y358443D02*
X200647Y361378D01*
X200645Y361485D01*
X200639Y361592D01*
X200629Y361699D01*
X200616Y361805D01*
X200598Y361911D01*
X200577Y362016D01*
X200552Y362120D01*
X200523Y362224D01*
X200490Y362326D01*
X200453Y362426D01*
X200413Y362526D01*
X200369Y362624D01*
X200322Y362720D01*
X200271Y362814D01*
X200217Y362907D01*
X200160Y362997D01*
X200099Y363086D01*
X200035Y363172D01*
X199968Y363255D01*
X199898Y363337D01*
X199825Y363415D01*
X199749Y363491D01*
X199671Y363564D01*
X199589Y363634D01*
X199506Y363701D01*
X199420Y363765D01*
X199331Y363826D01*
X199241Y363883D01*
X199148Y363937D01*
X199054Y363988D01*
X198958Y364035D01*
X198860Y364079D01*
X198760Y364119D01*
X198660Y364156D01*
X198558Y364189D01*
X198454Y364218D01*
X198350Y364243D01*
X198245Y364264D01*
X198139Y364282D01*
X198033Y364295D01*
X197926Y364305D01*
X197819Y364311D01*
X197712Y364313D01*
X197605Y364311D01*
X197498Y364305D01*
X197391Y364295D01*
X197285Y364282D01*
X197179Y364264D01*
X197074Y364243D01*
X196970Y364218D01*
X196866Y364189D01*
X196764Y364156D01*
X196664Y364119D01*
X196564Y364079D01*
X196466Y364035D01*
X196370Y363988D01*
X196276Y363937D01*
X196183Y363883D01*
X196093Y363826D01*
X196004Y363765D01*
X195918Y363701D01*
X195835Y363634D01*
X195753Y363564D01*
X195675Y363491D01*
X195599Y363415D01*
X195526Y363337D01*
X195456Y363255D01*
X195389Y363172D01*
X195325Y363086D01*
X195264Y362997D01*
X195207Y362907D01*
X195153Y362814D01*
X195102Y362720D01*
X195055Y362624D01*
X195011Y362526D01*
X194971Y362426D01*
X194934Y362326D01*
X194901Y362224D01*
X194872Y362120D01*
X194847Y362016D01*
X194826Y361911D01*
X194808Y361805D01*
X194795Y361699D01*
X194785Y361592D01*
X194779Y361485D01*
X194777Y361378D01*
X194776Y361378D02*
X194776Y358443D01*
X194777Y358443D02*
X194779Y358336D01*
X194785Y358229D01*
X194795Y358122D01*
X194808Y358016D01*
X194826Y357910D01*
X194847Y357805D01*
X194872Y357701D01*
X194901Y357597D01*
X194934Y357495D01*
X194971Y357395D01*
X195011Y357295D01*
X195055Y357197D01*
X195102Y357101D01*
X195153Y357007D01*
X195207Y356914D01*
X195264Y356824D01*
X195325Y356735D01*
X195389Y356649D01*
X195456Y356566D01*
X195526Y356484D01*
X195599Y356406D01*
X195675Y356330D01*
X195753Y356257D01*
X195835Y356187D01*
X195918Y356120D01*
X196004Y356056D01*
X196093Y355995D01*
X196183Y355938D01*
X196276Y355884D01*
X196370Y355833D01*
X196466Y355786D01*
X196564Y355742D01*
X196664Y355702D01*
X196764Y355665D01*
X196866Y355632D01*
X196970Y355603D01*
X197074Y355578D01*
X197179Y355557D01*
X197285Y355539D01*
X197391Y355526D01*
X197498Y355516D01*
X197605Y355510D01*
X197712Y355508D01*
X197819Y355510D01*
X197926Y355516D01*
X198033Y355526D01*
X198139Y355539D01*
X198245Y355557D01*
X198350Y355578D01*
X198454Y355603D01*
X198558Y355632D01*
X198660Y355665D01*
X198760Y355702D01*
X198860Y355742D01*
X198958Y355786D01*
X199054Y355833D01*
X199148Y355884D01*
X199241Y355938D01*
X199331Y355995D01*
X199420Y356056D01*
X199506Y356120D01*
X199589Y356187D01*
X199671Y356257D01*
X199749Y356330D01*
X199825Y356406D01*
X199898Y356484D01*
X199968Y356566D01*
X200035Y356649D01*
X200099Y356735D01*
X200160Y356824D01*
X200217Y356914D01*
X200271Y357007D01*
X200322Y357101D01*
X200369Y357197D01*
X200413Y357295D01*
X200453Y357395D01*
X200490Y357495D01*
X200523Y357597D01*
X200552Y357701D01*
X200577Y357805D01*
X200598Y357910D01*
X200616Y358016D01*
X200629Y358122D01*
X200639Y358229D01*
X200645Y358336D01*
X200647Y358443D01*
X190623Y364313D02*
X186220Y364313D01*
X189155Y368716D02*
X189155Y357709D01*
X189153Y357618D01*
X189147Y357527D01*
X189138Y357437D01*
X189125Y357347D01*
X189108Y357257D01*
X189088Y357169D01*
X189063Y357081D01*
X189036Y356994D01*
X189004Y356909D01*
X188970Y356825D01*
X188931Y356742D01*
X188890Y356661D01*
X188845Y356582D01*
X188797Y356505D01*
X188745Y356430D01*
X188691Y356357D01*
X188634Y356286D01*
X188573Y356218D01*
X188510Y356153D01*
X188445Y356090D01*
X188377Y356029D01*
X188306Y355972D01*
X188233Y355918D01*
X188158Y355866D01*
X188081Y355818D01*
X188002Y355773D01*
X187921Y355732D01*
X187838Y355693D01*
X187754Y355659D01*
X187669Y355627D01*
X187582Y355600D01*
X187494Y355575D01*
X187406Y355555D01*
X187316Y355538D01*
X187226Y355525D01*
X187136Y355516D01*
X187045Y355510D01*
X186954Y355508D01*
X186220Y355508D01*
X181444Y358443D02*
X181444Y361378D01*
X181442Y361485D01*
X181436Y361592D01*
X181426Y361699D01*
X181413Y361805D01*
X181395Y361911D01*
X181374Y362016D01*
X181349Y362120D01*
X181320Y362224D01*
X181287Y362326D01*
X181250Y362426D01*
X181210Y362526D01*
X181166Y362624D01*
X181119Y362720D01*
X181068Y362814D01*
X181014Y362907D01*
X180957Y362997D01*
X180896Y363086D01*
X180832Y363172D01*
X180765Y363255D01*
X180695Y363337D01*
X180622Y363415D01*
X180546Y363491D01*
X180468Y363564D01*
X180386Y363634D01*
X180303Y363701D01*
X180217Y363765D01*
X180128Y363826D01*
X180038Y363883D01*
X179945Y363937D01*
X179851Y363988D01*
X179755Y364035D01*
X179657Y364079D01*
X179557Y364119D01*
X179457Y364156D01*
X179355Y364189D01*
X179251Y364218D01*
X179147Y364243D01*
X179042Y364264D01*
X178936Y364282D01*
X178830Y364295D01*
X178723Y364305D01*
X178616Y364311D01*
X178509Y364313D01*
X178402Y364311D01*
X178295Y364305D01*
X178188Y364295D01*
X178082Y364282D01*
X177976Y364264D01*
X177871Y364243D01*
X177767Y364218D01*
X177663Y364189D01*
X177561Y364156D01*
X177461Y364119D01*
X177361Y364079D01*
X177263Y364035D01*
X177167Y363988D01*
X177073Y363937D01*
X176980Y363883D01*
X176890Y363826D01*
X176801Y363765D01*
X176715Y363701D01*
X176632Y363634D01*
X176550Y363564D01*
X176472Y363491D01*
X176396Y363415D01*
X176323Y363337D01*
X176253Y363255D01*
X176186Y363172D01*
X176122Y363086D01*
X176061Y362997D01*
X176004Y362907D01*
X175950Y362814D01*
X175899Y362720D01*
X175852Y362624D01*
X175808Y362526D01*
X175768Y362426D01*
X175731Y362326D01*
X175698Y362224D01*
X175669Y362120D01*
X175644Y362016D01*
X175623Y361911D01*
X175605Y361805D01*
X175592Y361699D01*
X175582Y361592D01*
X175576Y361485D01*
X175574Y361378D01*
X175574Y358443D01*
X175576Y358336D01*
X175582Y358229D01*
X175592Y358122D01*
X175605Y358016D01*
X175623Y357910D01*
X175644Y357805D01*
X175669Y357701D01*
X175698Y357597D01*
X175731Y357495D01*
X175768Y357395D01*
X175808Y357295D01*
X175852Y357197D01*
X175899Y357101D01*
X175950Y357007D01*
X176004Y356914D01*
X176061Y356824D01*
X176122Y356735D01*
X176186Y356649D01*
X176253Y356566D01*
X176323Y356484D01*
X176396Y356406D01*
X176472Y356330D01*
X176550Y356257D01*
X176632Y356187D01*
X176715Y356120D01*
X176801Y356056D01*
X176890Y355995D01*
X176980Y355938D01*
X177073Y355884D01*
X177167Y355833D01*
X177263Y355786D01*
X177361Y355742D01*
X177461Y355702D01*
X177561Y355665D01*
X177663Y355632D01*
X177767Y355603D01*
X177871Y355578D01*
X177976Y355557D01*
X178082Y355539D01*
X178188Y355526D01*
X178295Y355516D01*
X178402Y355510D01*
X178509Y355508D01*
X178616Y355510D01*
X178723Y355516D01*
X178830Y355526D01*
X178936Y355539D01*
X179042Y355557D01*
X179147Y355578D01*
X179251Y355603D01*
X179355Y355632D01*
X179457Y355665D01*
X179557Y355702D01*
X179657Y355742D01*
X179755Y355786D01*
X179851Y355833D01*
X179945Y355884D01*
X180038Y355938D01*
X180128Y355995D01*
X180217Y356056D01*
X180303Y356120D01*
X180386Y356187D01*
X180468Y356257D01*
X180546Y356330D01*
X180622Y356406D01*
X180695Y356484D01*
X180765Y356566D01*
X180832Y356649D01*
X180896Y356735D01*
X180957Y356824D01*
X181014Y356914D01*
X181068Y357007D01*
X181119Y357101D01*
X181166Y357197D01*
X181210Y357295D01*
X181250Y357395D01*
X181287Y357495D01*
X181320Y357597D01*
X181349Y357701D01*
X181374Y357805D01*
X181395Y357910D01*
X181413Y358016D01*
X181426Y358122D01*
X181436Y358229D01*
X181442Y358336D01*
X181444Y358443D01*
X169853Y355508D02*
X169853Y364313D01*
X165450Y364313D01*
X165450Y362846D01*
X159187Y355508D02*
X155518Y355508D01*
X159187Y355508D02*
X159278Y355510D01*
X159369Y355516D01*
X159459Y355525D01*
X159549Y355538D01*
X159639Y355555D01*
X159727Y355575D01*
X159815Y355600D01*
X159902Y355627D01*
X159987Y355659D01*
X160071Y355693D01*
X160154Y355732D01*
X160235Y355773D01*
X160314Y355818D01*
X160391Y355866D01*
X160466Y355918D01*
X160539Y355972D01*
X160610Y356029D01*
X160678Y356090D01*
X160743Y356153D01*
X160806Y356218D01*
X160867Y356286D01*
X160924Y356357D01*
X160978Y356430D01*
X161030Y356505D01*
X161078Y356582D01*
X161123Y356661D01*
X161164Y356742D01*
X161203Y356825D01*
X161237Y356909D01*
X161269Y356994D01*
X161296Y357081D01*
X161321Y357169D01*
X161341Y357257D01*
X161358Y357347D01*
X161371Y357437D01*
X161380Y357527D01*
X161386Y357618D01*
X161388Y357709D01*
X161389Y357709D02*
X161389Y361378D01*
X161388Y361378D02*
X161386Y361485D01*
X161380Y361592D01*
X161370Y361699D01*
X161357Y361805D01*
X161339Y361911D01*
X161318Y362016D01*
X161293Y362120D01*
X161264Y362224D01*
X161231Y362326D01*
X161194Y362426D01*
X161154Y362526D01*
X161110Y362624D01*
X161063Y362720D01*
X161012Y362814D01*
X160958Y362907D01*
X160901Y362997D01*
X160840Y363086D01*
X160776Y363172D01*
X160709Y363255D01*
X160639Y363337D01*
X160566Y363415D01*
X160490Y363491D01*
X160412Y363564D01*
X160330Y363634D01*
X160247Y363701D01*
X160161Y363765D01*
X160072Y363826D01*
X159982Y363883D01*
X159889Y363937D01*
X159795Y363988D01*
X159699Y364035D01*
X159601Y364079D01*
X159501Y364119D01*
X159401Y364156D01*
X159299Y364189D01*
X159195Y364218D01*
X159091Y364243D01*
X158986Y364264D01*
X158880Y364282D01*
X158774Y364295D01*
X158667Y364305D01*
X158560Y364311D01*
X158453Y364313D01*
X158346Y364311D01*
X158239Y364305D01*
X158132Y364295D01*
X158026Y364282D01*
X157920Y364264D01*
X157815Y364243D01*
X157711Y364218D01*
X157607Y364189D01*
X157505Y364156D01*
X157405Y364119D01*
X157305Y364079D01*
X157207Y364035D01*
X157111Y363988D01*
X157017Y363937D01*
X156924Y363883D01*
X156834Y363826D01*
X156745Y363765D01*
X156659Y363701D01*
X156576Y363634D01*
X156494Y363564D01*
X156416Y363491D01*
X156340Y363415D01*
X156267Y363337D01*
X156197Y363255D01*
X156130Y363172D01*
X156066Y363086D01*
X156005Y362997D01*
X155948Y362907D01*
X155894Y362814D01*
X155843Y362720D01*
X155796Y362624D01*
X155752Y362526D01*
X155712Y362426D01*
X155675Y362326D01*
X155642Y362224D01*
X155613Y362120D01*
X155588Y362016D01*
X155567Y361911D01*
X155549Y361805D01*
X155536Y361699D01*
X155526Y361592D01*
X155520Y361485D01*
X155518Y361378D01*
X155518Y359911D01*
X161389Y359911D01*
X149193Y360644D02*
X145524Y359177D01*
X149194Y360644D02*
X149273Y360678D01*
X149351Y360716D01*
X149428Y360757D01*
X149502Y360801D01*
X149574Y360849D01*
X149644Y360900D01*
X149711Y360954D01*
X149776Y361011D01*
X149839Y361072D01*
X149898Y361134D01*
X149955Y361200D01*
X150008Y361268D01*
X150059Y361338D01*
X150106Y361411D01*
X150150Y361486D01*
X150190Y361562D01*
X150227Y361641D01*
X150260Y361720D01*
X150290Y361802D01*
X150316Y361884D01*
X150338Y361968D01*
X150356Y362053D01*
X150370Y362138D01*
X150381Y362224D01*
X150387Y362310D01*
X150390Y362397D01*
X150389Y362484D01*
X150383Y362570D01*
X150374Y362656D01*
X150361Y362742D01*
X150344Y362827D01*
X150323Y362911D01*
X150299Y362994D01*
X150270Y363075D01*
X150238Y363156D01*
X150203Y363235D01*
X150163Y363312D01*
X150121Y363387D01*
X150074Y363460D01*
X150025Y363532D01*
X149973Y363600D01*
X149917Y363667D01*
X149858Y363730D01*
X149797Y363791D01*
X149733Y363850D01*
X149666Y363905D01*
X149597Y363957D01*
X149525Y364006D01*
X149452Y364051D01*
X149376Y364093D01*
X149299Y364132D01*
X149220Y364167D01*
X149139Y364199D01*
X149057Y364227D01*
X148974Y364251D01*
X148890Y364271D01*
X148805Y364287D01*
X148719Y364300D01*
X148633Y364308D01*
X148546Y364313D01*
X148460Y364314D01*
X148460Y364313D02*
X148260Y364308D01*
X148060Y364298D01*
X147860Y364283D01*
X147660Y364263D01*
X147461Y364239D01*
X147263Y364209D01*
X147066Y364175D01*
X146869Y364137D01*
X146674Y364093D01*
X146479Y364045D01*
X146286Y363992D01*
X146094Y363935D01*
X145903Y363873D01*
X145714Y363806D01*
X145527Y363735D01*
X145342Y363659D01*
X145158Y363579D01*
X145524Y359177D02*
X145445Y359143D01*
X145367Y359105D01*
X145290Y359064D01*
X145216Y359020D01*
X145144Y358972D01*
X145074Y358921D01*
X145007Y358867D01*
X144942Y358810D01*
X144879Y358749D01*
X144820Y358687D01*
X144763Y358621D01*
X144710Y358553D01*
X144659Y358483D01*
X144612Y358410D01*
X144568Y358335D01*
X144528Y358259D01*
X144491Y358180D01*
X144458Y358101D01*
X144428Y358019D01*
X144402Y357937D01*
X144380Y357853D01*
X144362Y357768D01*
X144348Y357683D01*
X144337Y357597D01*
X144331Y357511D01*
X144328Y357424D01*
X144329Y357337D01*
X144335Y357251D01*
X144344Y357165D01*
X144357Y357079D01*
X144374Y356994D01*
X144395Y356910D01*
X144419Y356827D01*
X144448Y356746D01*
X144480Y356665D01*
X144515Y356586D01*
X144555Y356509D01*
X144597Y356434D01*
X144644Y356361D01*
X144693Y356289D01*
X144745Y356221D01*
X144801Y356154D01*
X144860Y356091D01*
X144921Y356030D01*
X144985Y355971D01*
X145052Y355916D01*
X145121Y355864D01*
X145193Y355815D01*
X145266Y355770D01*
X145342Y355728D01*
X145419Y355689D01*
X145498Y355654D01*
X145579Y355622D01*
X145661Y355594D01*
X145744Y355570D01*
X145828Y355550D01*
X145913Y355534D01*
X145999Y355521D01*
X146085Y355513D01*
X146172Y355508D01*
X146258Y355507D01*
X146258Y355508D02*
X146552Y355516D01*
X146846Y355531D01*
X147140Y355552D01*
X147433Y355581D01*
X147725Y355616D01*
X148016Y355659D01*
X148306Y355708D01*
X148595Y355764D01*
X148883Y355827D01*
X149169Y355896D01*
X149453Y355973D01*
X149735Y356056D01*
X150016Y356146D01*
X150294Y356242D01*
X139251Y355508D02*
X139251Y364313D01*
X139618Y367982D02*
X139618Y368716D01*
X138884Y368716D01*
X138884Y367982D01*
X139618Y367982D01*
X132978Y360644D02*
X129309Y359177D01*
X132978Y360644D02*
X133057Y360678D01*
X133135Y360716D01*
X133212Y360757D01*
X133286Y360801D01*
X133358Y360849D01*
X133428Y360900D01*
X133495Y360954D01*
X133560Y361011D01*
X133623Y361072D01*
X133682Y361134D01*
X133739Y361200D01*
X133792Y361268D01*
X133843Y361338D01*
X133890Y361411D01*
X133934Y361486D01*
X133974Y361562D01*
X134011Y361641D01*
X134044Y361720D01*
X134074Y361802D01*
X134100Y361884D01*
X134122Y361968D01*
X134140Y362053D01*
X134154Y362138D01*
X134165Y362224D01*
X134171Y362310D01*
X134174Y362397D01*
X134173Y362484D01*
X134167Y362570D01*
X134158Y362656D01*
X134145Y362742D01*
X134128Y362827D01*
X134107Y362911D01*
X134083Y362994D01*
X134054Y363075D01*
X134022Y363156D01*
X133987Y363235D01*
X133947Y363312D01*
X133905Y363387D01*
X133858Y363460D01*
X133809Y363532D01*
X133757Y363600D01*
X133701Y363667D01*
X133642Y363730D01*
X133581Y363791D01*
X133517Y363850D01*
X133450Y363905D01*
X133381Y363957D01*
X133309Y364006D01*
X133236Y364051D01*
X133160Y364093D01*
X133083Y364132D01*
X133004Y364167D01*
X132923Y364199D01*
X132841Y364227D01*
X132758Y364251D01*
X132674Y364271D01*
X132589Y364287D01*
X132503Y364300D01*
X132417Y364308D01*
X132330Y364313D01*
X132244Y364314D01*
X132244Y364313D02*
X132044Y364308D01*
X131844Y364298D01*
X131644Y364283D01*
X131444Y364263D01*
X131245Y364239D01*
X131047Y364209D01*
X130850Y364175D01*
X130653Y364137D01*
X130458Y364093D01*
X130263Y364045D01*
X130070Y363992D01*
X129878Y363935D01*
X129687Y363873D01*
X129498Y363806D01*
X129311Y363735D01*
X129126Y363659D01*
X128942Y363579D01*
X129309Y359177D02*
X129230Y359143D01*
X129152Y359105D01*
X129075Y359064D01*
X129001Y359020D01*
X128929Y358972D01*
X128859Y358921D01*
X128792Y358867D01*
X128727Y358810D01*
X128664Y358749D01*
X128605Y358687D01*
X128548Y358621D01*
X128495Y358553D01*
X128444Y358483D01*
X128397Y358410D01*
X128353Y358335D01*
X128313Y358259D01*
X128276Y358180D01*
X128243Y358101D01*
X128213Y358019D01*
X128187Y357937D01*
X128165Y357853D01*
X128147Y357768D01*
X128133Y357683D01*
X128122Y357597D01*
X128116Y357511D01*
X128113Y357424D01*
X128114Y357337D01*
X128120Y357251D01*
X128129Y357165D01*
X128142Y357079D01*
X128159Y356994D01*
X128180Y356910D01*
X128204Y356827D01*
X128233Y356746D01*
X128265Y356665D01*
X128300Y356586D01*
X128340Y356509D01*
X128382Y356434D01*
X128429Y356361D01*
X128478Y356289D01*
X128530Y356221D01*
X128586Y356154D01*
X128645Y356091D01*
X128706Y356030D01*
X128770Y355971D01*
X128837Y355916D01*
X128906Y355864D01*
X128978Y355815D01*
X129051Y355770D01*
X129127Y355728D01*
X129204Y355689D01*
X129283Y355654D01*
X129364Y355622D01*
X129446Y355594D01*
X129529Y355570D01*
X129613Y355550D01*
X129698Y355534D01*
X129784Y355521D01*
X129870Y355513D01*
X129957Y355508D01*
X130043Y355507D01*
X130043Y355508D02*
X130337Y355516D01*
X130631Y355531D01*
X130925Y355552D01*
X131218Y355581D01*
X131510Y355616D01*
X131801Y355659D01*
X132091Y355708D01*
X132380Y355764D01*
X132668Y355827D01*
X132954Y355896D01*
X133238Y355973D01*
X133520Y356056D01*
X133801Y356146D01*
X134079Y356242D01*
X124055Y364313D02*
X119652Y364313D01*
X122587Y368716D02*
X122587Y357709D01*
X122585Y357618D01*
X122579Y357527D01*
X122570Y357437D01*
X122557Y357347D01*
X122540Y357257D01*
X122520Y357169D01*
X122495Y357081D01*
X122468Y356994D01*
X122436Y356909D01*
X122402Y356825D01*
X122363Y356742D01*
X122322Y356661D01*
X122277Y356582D01*
X122229Y356505D01*
X122177Y356430D01*
X122123Y356357D01*
X122066Y356286D01*
X122005Y356218D01*
X121942Y356153D01*
X121877Y356090D01*
X121809Y356029D01*
X121738Y355972D01*
X121665Y355918D01*
X121590Y355866D01*
X121513Y355818D01*
X121434Y355773D01*
X121353Y355732D01*
X121270Y355693D01*
X121186Y355659D01*
X121101Y355627D01*
X121014Y355600D01*
X120926Y355575D01*
X120838Y355555D01*
X120748Y355538D01*
X120658Y355525D01*
X120568Y355516D01*
X120477Y355510D01*
X120386Y355508D01*
X119652Y355508D01*
X114876Y358443D02*
X114876Y361378D01*
X114874Y361485D01*
X114868Y361592D01*
X114858Y361699D01*
X114845Y361805D01*
X114827Y361911D01*
X114806Y362016D01*
X114781Y362120D01*
X114752Y362224D01*
X114719Y362326D01*
X114682Y362426D01*
X114642Y362526D01*
X114598Y362624D01*
X114551Y362720D01*
X114500Y362814D01*
X114446Y362907D01*
X114389Y362997D01*
X114328Y363086D01*
X114264Y363172D01*
X114197Y363255D01*
X114127Y363337D01*
X114054Y363415D01*
X113978Y363491D01*
X113900Y363564D01*
X113818Y363634D01*
X113735Y363701D01*
X113649Y363765D01*
X113560Y363826D01*
X113470Y363883D01*
X113377Y363937D01*
X113283Y363988D01*
X113187Y364035D01*
X113089Y364079D01*
X112989Y364119D01*
X112889Y364156D01*
X112787Y364189D01*
X112683Y364218D01*
X112579Y364243D01*
X112474Y364264D01*
X112368Y364282D01*
X112262Y364295D01*
X112155Y364305D01*
X112048Y364311D01*
X111941Y364313D01*
X111834Y364311D01*
X111727Y364305D01*
X111620Y364295D01*
X111514Y364282D01*
X111408Y364264D01*
X111303Y364243D01*
X111199Y364218D01*
X111095Y364189D01*
X110993Y364156D01*
X110893Y364119D01*
X110793Y364079D01*
X110695Y364035D01*
X110599Y363988D01*
X110505Y363937D01*
X110412Y363883D01*
X110322Y363826D01*
X110233Y363765D01*
X110147Y363701D01*
X110064Y363634D01*
X109982Y363564D01*
X109904Y363491D01*
X109828Y363415D01*
X109755Y363337D01*
X109685Y363255D01*
X109618Y363172D01*
X109554Y363086D01*
X109493Y362997D01*
X109436Y362907D01*
X109382Y362814D01*
X109331Y362720D01*
X109284Y362624D01*
X109240Y362526D01*
X109200Y362426D01*
X109163Y362326D01*
X109130Y362224D01*
X109101Y362120D01*
X109076Y362016D01*
X109055Y361911D01*
X109037Y361805D01*
X109024Y361699D01*
X109014Y361592D01*
X109008Y361485D01*
X109006Y361378D01*
X109006Y358443D01*
X109008Y358336D01*
X109014Y358229D01*
X109024Y358122D01*
X109037Y358016D01*
X109055Y357910D01*
X109076Y357805D01*
X109101Y357701D01*
X109130Y357597D01*
X109163Y357495D01*
X109200Y357395D01*
X109240Y357295D01*
X109284Y357197D01*
X109331Y357101D01*
X109382Y357007D01*
X109436Y356914D01*
X109493Y356824D01*
X109554Y356735D01*
X109618Y356649D01*
X109685Y356566D01*
X109755Y356484D01*
X109828Y356406D01*
X109904Y356330D01*
X109982Y356257D01*
X110064Y356187D01*
X110147Y356120D01*
X110233Y356056D01*
X110322Y355995D01*
X110412Y355938D01*
X110505Y355884D01*
X110599Y355833D01*
X110695Y355786D01*
X110793Y355742D01*
X110893Y355702D01*
X110993Y355665D01*
X111095Y355632D01*
X111199Y355603D01*
X111303Y355578D01*
X111408Y355557D01*
X111514Y355539D01*
X111620Y355526D01*
X111727Y355516D01*
X111834Y355510D01*
X111941Y355508D01*
X112048Y355510D01*
X112155Y355516D01*
X112262Y355526D01*
X112368Y355539D01*
X112474Y355557D01*
X112579Y355578D01*
X112683Y355603D01*
X112787Y355632D01*
X112889Y355665D01*
X112989Y355702D01*
X113089Y355742D01*
X113187Y355786D01*
X113283Y355833D01*
X113377Y355884D01*
X113470Y355938D01*
X113560Y355995D01*
X113649Y356056D01*
X113735Y356120D01*
X113818Y356187D01*
X113900Y356257D01*
X113978Y356330D01*
X114054Y356406D01*
X114127Y356484D01*
X114197Y356566D01*
X114264Y356649D01*
X114328Y356735D01*
X114389Y356824D01*
X114446Y356914D01*
X114500Y357007D01*
X114551Y357101D01*
X114598Y357197D01*
X114642Y357295D01*
X114682Y357395D01*
X114719Y357495D01*
X114752Y357597D01*
X114781Y357701D01*
X114806Y357805D01*
X114827Y357910D01*
X114845Y358016D01*
X114858Y358122D01*
X114868Y358229D01*
X114874Y358336D01*
X114876Y358443D01*
X103284Y355508D02*
X103284Y364313D01*
X98882Y364313D01*
X98882Y362846D01*
X284557Y345716D02*
X284649Y345714D01*
X284741Y345708D01*
X284832Y345698D01*
X284923Y345685D01*
X285013Y345667D01*
X285103Y345646D01*
X285191Y345621D01*
X285278Y345592D01*
X285364Y345559D01*
X285449Y345523D01*
X285532Y345484D01*
X285613Y345440D01*
X285692Y345394D01*
X285769Y345344D01*
X285844Y345291D01*
X285917Y345234D01*
X285987Y345175D01*
X286055Y345113D01*
X286120Y345047D01*
X286182Y344980D01*
X286241Y344909D01*
X286297Y344836D01*
X286350Y344761D01*
X286400Y344684D01*
X286446Y344604D01*
X286489Y344523D01*
X286528Y344440D01*
X286564Y344355D01*
X286597Y344269D01*
X286625Y344182D01*
X286650Y344093D01*
X286671Y344004D01*
X286688Y343914D01*
X286701Y343823D01*
X286711Y343731D01*
X286716Y343639D01*
X286718Y343547D01*
X286716Y343456D01*
X286710Y343364D01*
X286699Y343272D01*
X286685Y343182D01*
X286668Y343091D01*
X286646Y343002D01*
X286621Y342914D01*
X286591Y342826D01*
X286559Y342741D01*
X286522Y342656D01*
X286482Y342573D01*
X286439Y342492D01*
X286392Y342413D01*
X286391Y342414D02*
X280154Y332508D01*
X282722Y342413D02*
X282675Y342492D01*
X282632Y342573D01*
X282592Y342656D01*
X282555Y342741D01*
X282523Y342826D01*
X282493Y342914D01*
X282468Y343002D01*
X282446Y343091D01*
X282429Y343182D01*
X282415Y343272D01*
X282404Y343364D01*
X282398Y343456D01*
X282396Y343547D01*
X282398Y343639D01*
X282403Y343731D01*
X282413Y343823D01*
X282426Y343914D01*
X282443Y344004D01*
X282464Y344093D01*
X282489Y344182D01*
X282517Y344269D01*
X282550Y344355D01*
X282586Y344440D01*
X282625Y344523D01*
X282668Y344604D01*
X282714Y344684D01*
X282764Y344761D01*
X282817Y344836D01*
X282873Y344909D01*
X282932Y344980D01*
X282994Y345047D01*
X283059Y345113D01*
X283127Y345175D01*
X283197Y345234D01*
X283270Y345291D01*
X283345Y345344D01*
X283422Y345394D01*
X283501Y345440D01*
X283582Y345484D01*
X283665Y345523D01*
X283750Y345559D01*
X283836Y345592D01*
X283923Y345621D01*
X284011Y345646D01*
X284101Y345667D01*
X284191Y345685D01*
X284282Y345698D01*
X284373Y345708D01*
X284465Y345714D01*
X284557Y345716D01*
X287492Y334709D02*
X287490Y334618D01*
X287484Y334527D01*
X287475Y334437D01*
X287462Y334347D01*
X287445Y334257D01*
X287425Y334169D01*
X287400Y334081D01*
X287373Y333994D01*
X287341Y333909D01*
X287307Y333825D01*
X287268Y333742D01*
X287227Y333661D01*
X287182Y333582D01*
X287134Y333505D01*
X287082Y333430D01*
X287028Y333357D01*
X286971Y333286D01*
X286910Y333218D01*
X286847Y333153D01*
X286782Y333090D01*
X286714Y333029D01*
X286643Y332972D01*
X286570Y332918D01*
X286495Y332866D01*
X286418Y332818D01*
X286339Y332773D01*
X286258Y332732D01*
X286175Y332693D01*
X286091Y332659D01*
X286006Y332627D01*
X285919Y332600D01*
X285831Y332575D01*
X285743Y332555D01*
X285653Y332538D01*
X285563Y332525D01*
X285473Y332516D01*
X285382Y332510D01*
X285291Y332508D01*
X287492Y334709D02*
X287490Y334793D01*
X287484Y334877D01*
X287475Y334961D01*
X287461Y335044D01*
X287444Y335127D01*
X287423Y335209D01*
X287398Y335289D01*
X287369Y335369D01*
X287337Y335447D01*
X287302Y335523D01*
X287262Y335598D01*
X287220Y335671D01*
X287174Y335741D01*
X287125Y335810D01*
X282722Y342414D01*
X284190Y332875D02*
X284259Y332826D01*
X284329Y332780D01*
X284402Y332738D01*
X284477Y332698D01*
X284553Y332663D01*
X284631Y332631D01*
X284711Y332602D01*
X284791Y332577D01*
X284873Y332556D01*
X284956Y332539D01*
X285039Y332525D01*
X285123Y332516D01*
X285207Y332510D01*
X285291Y332508D01*
X284190Y332875D02*
X278687Y336911D01*
X268094Y332508D02*
X263692Y332508D01*
X263585Y332510D01*
X263478Y332516D01*
X263371Y332526D01*
X263265Y332539D01*
X263159Y332557D01*
X263054Y332578D01*
X262950Y332603D01*
X262846Y332632D01*
X262744Y332665D01*
X262644Y332702D01*
X262544Y332742D01*
X262446Y332786D01*
X262350Y332833D01*
X262256Y332884D01*
X262163Y332938D01*
X262073Y332995D01*
X261984Y333056D01*
X261898Y333120D01*
X261815Y333187D01*
X261733Y333257D01*
X261655Y333330D01*
X261579Y333406D01*
X261506Y333484D01*
X261436Y333566D01*
X261369Y333649D01*
X261305Y333735D01*
X261244Y333824D01*
X261187Y333914D01*
X261133Y334007D01*
X261082Y334101D01*
X261035Y334197D01*
X260991Y334295D01*
X260951Y334395D01*
X260914Y334495D01*
X260881Y334597D01*
X260852Y334701D01*
X260827Y334805D01*
X260806Y334910D01*
X260788Y335016D01*
X260775Y335122D01*
X260765Y335229D01*
X260759Y335336D01*
X260757Y335443D01*
X260757Y336911D01*
X260759Y337018D01*
X260765Y337125D01*
X260775Y337232D01*
X260788Y337338D01*
X260806Y337444D01*
X260827Y337549D01*
X260852Y337653D01*
X260881Y337757D01*
X260914Y337859D01*
X260951Y337959D01*
X260991Y338059D01*
X261035Y338157D01*
X261082Y338253D01*
X261133Y338347D01*
X261187Y338440D01*
X261244Y338530D01*
X261305Y338619D01*
X261369Y338705D01*
X261436Y338788D01*
X261506Y338870D01*
X261579Y338948D01*
X261655Y339024D01*
X261733Y339097D01*
X261815Y339167D01*
X261898Y339234D01*
X261984Y339298D01*
X262073Y339359D01*
X262163Y339416D01*
X262256Y339470D01*
X262350Y339521D01*
X262446Y339569D01*
X262544Y339612D01*
X262644Y339652D01*
X262744Y339689D01*
X262846Y339722D01*
X262950Y339751D01*
X263054Y339776D01*
X263159Y339797D01*
X263265Y339815D01*
X263371Y339828D01*
X263478Y339838D01*
X263585Y339844D01*
X263692Y339846D01*
X268094Y339846D01*
X268094Y345716D01*
X260757Y345716D01*
X255293Y332508D02*
X250890Y332508D01*
X250783Y332510D01*
X250676Y332516D01*
X250569Y332526D01*
X250463Y332539D01*
X250357Y332557D01*
X250252Y332578D01*
X250148Y332603D01*
X250044Y332632D01*
X249942Y332665D01*
X249842Y332702D01*
X249742Y332742D01*
X249644Y332786D01*
X249548Y332833D01*
X249454Y332884D01*
X249361Y332938D01*
X249271Y332995D01*
X249182Y333056D01*
X249096Y333120D01*
X249013Y333187D01*
X248931Y333257D01*
X248853Y333330D01*
X248777Y333406D01*
X248704Y333484D01*
X248634Y333566D01*
X248567Y333649D01*
X248503Y333735D01*
X248442Y333824D01*
X248385Y333914D01*
X248331Y334007D01*
X248280Y334101D01*
X248233Y334197D01*
X248189Y334295D01*
X248149Y334395D01*
X248112Y334495D01*
X248079Y334597D01*
X248050Y334701D01*
X248025Y334805D01*
X248004Y334910D01*
X247986Y335016D01*
X247973Y335122D01*
X247963Y335229D01*
X247957Y335336D01*
X247955Y335443D01*
X247955Y336911D01*
X247957Y337018D01*
X247963Y337125D01*
X247973Y337232D01*
X247986Y337338D01*
X248004Y337444D01*
X248025Y337549D01*
X248050Y337653D01*
X248079Y337757D01*
X248112Y337859D01*
X248149Y337959D01*
X248189Y338059D01*
X248233Y338157D01*
X248280Y338253D01*
X248331Y338347D01*
X248385Y338440D01*
X248442Y338530D01*
X248503Y338619D01*
X248567Y338705D01*
X248634Y338788D01*
X248704Y338870D01*
X248777Y338948D01*
X248853Y339024D01*
X248931Y339097D01*
X249013Y339167D01*
X249096Y339234D01*
X249182Y339298D01*
X249271Y339359D01*
X249361Y339416D01*
X249454Y339470D01*
X249548Y339521D01*
X249644Y339569D01*
X249742Y339612D01*
X249842Y339652D01*
X249942Y339689D01*
X250044Y339722D01*
X250148Y339751D01*
X250252Y339776D01*
X250357Y339797D01*
X250463Y339815D01*
X250569Y339828D01*
X250676Y339838D01*
X250783Y339844D01*
X250890Y339846D01*
X255293Y339846D01*
X255293Y345716D01*
X247955Y345716D01*
X242491Y332508D02*
X238089Y332508D01*
X237982Y332510D01*
X237875Y332516D01*
X237768Y332526D01*
X237662Y332539D01*
X237556Y332557D01*
X237451Y332578D01*
X237347Y332603D01*
X237243Y332632D01*
X237141Y332665D01*
X237041Y332702D01*
X236941Y332742D01*
X236843Y332786D01*
X236747Y332833D01*
X236653Y332884D01*
X236560Y332938D01*
X236470Y332995D01*
X236381Y333056D01*
X236295Y333120D01*
X236212Y333187D01*
X236130Y333257D01*
X236052Y333330D01*
X235976Y333406D01*
X235903Y333484D01*
X235833Y333566D01*
X235766Y333649D01*
X235702Y333735D01*
X235641Y333824D01*
X235584Y333914D01*
X235530Y334007D01*
X235479Y334101D01*
X235432Y334197D01*
X235388Y334295D01*
X235348Y334395D01*
X235311Y334495D01*
X235278Y334597D01*
X235249Y334701D01*
X235224Y334805D01*
X235203Y334910D01*
X235185Y335016D01*
X235172Y335122D01*
X235162Y335229D01*
X235156Y335336D01*
X235154Y335443D01*
X235153Y335443D02*
X235153Y336911D01*
X235154Y336911D02*
X235156Y337018D01*
X235162Y337125D01*
X235172Y337232D01*
X235185Y337338D01*
X235203Y337444D01*
X235224Y337549D01*
X235249Y337653D01*
X235278Y337757D01*
X235311Y337859D01*
X235348Y337959D01*
X235388Y338059D01*
X235432Y338157D01*
X235479Y338253D01*
X235530Y338347D01*
X235584Y338440D01*
X235641Y338530D01*
X235702Y338619D01*
X235766Y338705D01*
X235833Y338788D01*
X235903Y338870D01*
X235976Y338948D01*
X236052Y339024D01*
X236130Y339097D01*
X236212Y339167D01*
X236295Y339234D01*
X236381Y339298D01*
X236470Y339359D01*
X236560Y339416D01*
X236653Y339470D01*
X236747Y339521D01*
X236843Y339569D01*
X236941Y339612D01*
X237041Y339652D01*
X237141Y339689D01*
X237243Y339722D01*
X237347Y339751D01*
X237451Y339776D01*
X237556Y339797D01*
X237662Y339815D01*
X237768Y339828D01*
X237875Y339838D01*
X237982Y339844D01*
X238089Y339846D01*
X242491Y339846D01*
X242491Y345716D01*
X235153Y345716D01*
X224053Y341313D02*
X219650Y341313D01*
X222585Y345716D02*
X222585Y334709D01*
X222583Y334618D01*
X222577Y334527D01*
X222568Y334437D01*
X222555Y334347D01*
X222538Y334257D01*
X222518Y334169D01*
X222493Y334081D01*
X222466Y333994D01*
X222434Y333909D01*
X222400Y333825D01*
X222361Y333742D01*
X222320Y333661D01*
X222275Y333582D01*
X222227Y333505D01*
X222175Y333430D01*
X222121Y333357D01*
X222064Y333286D01*
X222003Y333218D01*
X221940Y333153D01*
X221875Y333090D01*
X221807Y333029D01*
X221736Y332972D01*
X221663Y332918D01*
X221588Y332866D01*
X221511Y332818D01*
X221432Y332773D01*
X221351Y332732D01*
X221268Y332693D01*
X221184Y332659D01*
X221099Y332627D01*
X221012Y332600D01*
X220924Y332575D01*
X220836Y332555D01*
X220746Y332538D01*
X220656Y332525D01*
X220566Y332516D01*
X220475Y332510D01*
X220384Y332508D01*
X219650Y332508D01*
X214926Y332508D02*
X214926Y341313D01*
X215293Y344982D02*
X215293Y345716D01*
X214559Y345716D01*
X214559Y344982D01*
X215293Y344982D01*
X209087Y341313D02*
X209087Y332508D01*
X209087Y341313D02*
X202483Y341313D01*
X202392Y341311D01*
X202301Y341305D01*
X202211Y341296D01*
X202121Y341283D01*
X202031Y341266D01*
X201943Y341246D01*
X201855Y341221D01*
X201768Y341194D01*
X201683Y341162D01*
X201599Y341128D01*
X201516Y341089D01*
X201435Y341048D01*
X201356Y341003D01*
X201279Y340955D01*
X201204Y340903D01*
X201131Y340849D01*
X201060Y340792D01*
X200992Y340731D01*
X200927Y340668D01*
X200864Y340603D01*
X200803Y340535D01*
X200746Y340464D01*
X200692Y340391D01*
X200640Y340316D01*
X200592Y340239D01*
X200547Y340160D01*
X200506Y340079D01*
X200467Y339996D01*
X200433Y339912D01*
X200401Y339827D01*
X200374Y339740D01*
X200349Y339652D01*
X200329Y339564D01*
X200312Y339474D01*
X200299Y339384D01*
X200290Y339294D01*
X200284Y339203D01*
X200282Y339112D01*
X200282Y332508D01*
X204685Y332508D02*
X204685Y341313D01*
X192190Y332508D02*
X188521Y332508D01*
X192190Y332508D02*
X192281Y332510D01*
X192372Y332516D01*
X192462Y332525D01*
X192552Y332538D01*
X192642Y332555D01*
X192730Y332575D01*
X192818Y332600D01*
X192905Y332627D01*
X192990Y332659D01*
X193074Y332693D01*
X193157Y332732D01*
X193238Y332773D01*
X193317Y332818D01*
X193394Y332866D01*
X193469Y332918D01*
X193542Y332972D01*
X193613Y333029D01*
X193681Y333090D01*
X193746Y333153D01*
X193809Y333218D01*
X193870Y333286D01*
X193927Y333357D01*
X193981Y333430D01*
X194033Y333505D01*
X194081Y333582D01*
X194126Y333661D01*
X194167Y333742D01*
X194206Y333825D01*
X194240Y333909D01*
X194272Y333994D01*
X194299Y334081D01*
X194324Y334169D01*
X194344Y334257D01*
X194361Y334347D01*
X194374Y334437D01*
X194383Y334527D01*
X194389Y334618D01*
X194391Y334709D01*
X194392Y334709D02*
X194392Y338378D01*
X194390Y338485D01*
X194384Y338592D01*
X194374Y338699D01*
X194361Y338805D01*
X194343Y338911D01*
X194322Y339016D01*
X194297Y339120D01*
X194268Y339224D01*
X194235Y339326D01*
X194198Y339426D01*
X194158Y339526D01*
X194114Y339624D01*
X194067Y339720D01*
X194016Y339814D01*
X193962Y339907D01*
X193905Y339997D01*
X193844Y340086D01*
X193780Y340172D01*
X193713Y340255D01*
X193643Y340337D01*
X193570Y340415D01*
X193494Y340491D01*
X193416Y340564D01*
X193334Y340634D01*
X193251Y340701D01*
X193165Y340765D01*
X193076Y340826D01*
X192986Y340883D01*
X192893Y340937D01*
X192799Y340988D01*
X192703Y341035D01*
X192605Y341079D01*
X192505Y341119D01*
X192405Y341156D01*
X192303Y341189D01*
X192199Y341218D01*
X192095Y341243D01*
X191990Y341264D01*
X191884Y341282D01*
X191778Y341295D01*
X191671Y341305D01*
X191564Y341311D01*
X191457Y341313D01*
X191350Y341311D01*
X191243Y341305D01*
X191136Y341295D01*
X191030Y341282D01*
X190924Y341264D01*
X190819Y341243D01*
X190715Y341218D01*
X190611Y341189D01*
X190509Y341156D01*
X190409Y341119D01*
X190309Y341079D01*
X190211Y341035D01*
X190115Y340988D01*
X190021Y340937D01*
X189928Y340883D01*
X189838Y340826D01*
X189749Y340765D01*
X189663Y340701D01*
X189580Y340634D01*
X189498Y340564D01*
X189420Y340491D01*
X189344Y340415D01*
X189271Y340337D01*
X189201Y340255D01*
X189134Y340172D01*
X189070Y340086D01*
X189009Y339997D01*
X188952Y339907D01*
X188898Y339814D01*
X188847Y339720D01*
X188800Y339624D01*
X188756Y339526D01*
X188716Y339426D01*
X188679Y339326D01*
X188646Y339224D01*
X188617Y339120D01*
X188592Y339016D01*
X188571Y338911D01*
X188553Y338805D01*
X188540Y338699D01*
X188530Y338592D01*
X188524Y338485D01*
X188522Y338378D01*
X188521Y338378D02*
X188521Y336911D01*
X194392Y336911D01*
X182800Y341313D02*
X182800Y332508D01*
X182800Y341313D02*
X178397Y341313D01*
X178397Y339846D01*
M02*
