M48
;GenerationSoftware,Autodesk,EAGLE,9.6.2*%
;CreationDate,2020-07-08T23:27:38Z*%
FMAT,2
ICI,OFF
METRIC,TZ,000.000
T3C0.700
T2C0.813
T1C1.016
%
G90
M71
T1
X47120Y6920
X47120Y12000
X36960Y9460
X16510Y17069
X16510Y23571
X19570Y3310
X17030Y3310
T2
X16310Y10330
X13770Y10330
X33520Y10360
X33520Y12900
X13170Y5420
X10630Y5420
X21590Y13970
X21590Y11430
X29210Y11430
X29210Y13970
X21590Y8890
X21590Y6350
X29210Y8890
X29210Y6350
X41910Y21590
X43180Y19685
X44450Y21590
X36090Y22960
X36090Y15340
X24130Y16510
X24130Y24130
X31750Y22860
X31750Y15240
T3
X44100Y29210
X44100Y36830
M30